<?xml version="1.0" encoding="UTF-8"?> <svg xmlns="http://www.w3.org/2000/svg" xmlns:xlink="http://www.w3.org/1999/xlink" id="Groupe_719" data-name="Groupe 719" width="254.78" height="139.237" viewBox="0 0 254.78 139.237"><defs><clipPath id="clip-path"><rect id="Rectangle_91" data-name="Rectangle 91" width="254.78" height="139.237" fill="none"></rect></clipPath></defs><g id="Groupe_614" data-name="Groupe 614" transform="translate(0 0)" clip-path="url(#clip-path)"><path id="Tracé_3617" data-name="Tracé 3617" d="M63.37,22.543c3.963,1.525,8.065,1.879,11.837,2.364,30.18,3.872,85.487-23.359,113.828-1.974l-.037.053C154.588,8.838,116.041,34.1,76.125,27.731c-8.375-1.338-12.555-4.964-12.772-5.157Z" transform="translate(27.985 6.471)" fill="#8c6f35"></path><path id="Tracé_3618" data-name="Tracé 3618" d="M68.35,49.639a40.678,40.678,0,0,1,.14-4.363l.036-.539c.507-8.18.914-14.638.7-18.147a2.849,2.849,0,0,0-.059-.386,8.653,8.653,0,0,1,1.188-.146c-.153,0-.288-.016-.456-.009a8.1,8.1,0,0,0-1.422.154c.022.15.05.27.058.386.2,3.509-.195,9.967-.706,18.147l-.033.539a42.886,42.886,0,0,0-.143,4.363c.065,1.867.6,2.857,3.268,2.775l.195-.01c-2.215-.058-2.71-1.029-2.767-2.765" transform="translate(29.879 11.505)" fill="#8c6f35"></path><path id="Tracé_3619" data-name="Tracé 3619" d="M77.7,40.669s1.847,1.681,1.84,1.671a3.732,3.732,0,0,1,1.44,2.429,3.316,3.316,0,0,1-.737,2.562,2.867,2.867,0,0,1-1.822.95c.1.014.2.029.3.035a.2.2,0,0,0,.063.007,2.919,2.919,0,0,0,2.157-.992,3.312,3.312,0,0,0,.729-2.562,3.747,3.747,0,0,0-1.439-2.429l-1.84-1.671a6.7,6.7,0,0,1-2.638-4.181,4.269,4.269,0,0,1,1.014-3.377,6.287,6.287,0,0,1,4.667-1.932c-.258-.007-.493-.007-.688,0a6.291,6.291,0,0,0-4.677,1.932,4.263,4.263,0,0,0-1,3.377c.16,1.429,1,2.752,2.634,4.181" transform="translate(33.143 13.77)" fill="#8c6f35"></path><path id="Tracé_3620" data-name="Tracé 3620" d="M80.009,32.339a5.938,5.938,0,0,1,2.967,1.249,3.83,3.83,0,0,0,.141-.382,5.344,5.344,0,0,0-2.951-.885,1.416,1.416,0,0,0-.157.019" transform="translate(35.342 14.276)" fill="#8c6f35"></path><path id="Tracé_3621" data-name="Tracé 3621" d="M74.956,43.137a2.657,2.657,0,0,1,.11-.82,6.886,6.886,0,0,1-.568-.5,4.487,4.487,0,0,0-.238,1.318c.235,2.031,3.006,2.259,4.641,2.212-1.623-.042-3.741-.445-3.945-2.212" transform="translate(32.8 18.472)" fill="#8c6f35"></path><path id="Tracé_3622" data-name="Tracé 3622" d="M89.462,30.759a.533.533,0,0,1,.127-.013.044.044,0,0,1,0-.023,3.446,3.446,0,0,1-3.133-2.617,1.612,1.612,0,0,1,.324-1.293,1.487,1.487,0,0,1,.979-.477,2.174,2.174,0,0,0-.405-.035,1.663,1.663,0,0,0-1.274.512,1.643,1.643,0,0,0-.317,1.293c.17,1.462,1.9,2.7,3.7,2.653" transform="translate(37.874 11.617)" fill="#8c6f35"></path><path id="Tracé_3623" data-name="Tracé 3623" d="M85.872,47.192c-.058-.5.046-3.26.133-4.885.012-.223.433-5.789.469-8.224l.009-.574a9.046,9.046,0,0,0-.15-2.272,2.757,2.757,0,0,1,.774-.1c-.118,0-.226-.016-.358-.01l-.284.01a2.768,2.768,0,0,0-.829.1,9.071,9.071,0,0,1,.157,2.272l-.016.574c-.035,2.435-.451,8-.47,8.224-.084,1.625-.18,4.389-.124,4.885.156,1.371.735,2.2,3.162,2.14a1.551,1.551,0,0,1,.206-.016c-2-.059-2.53-.855-2.679-2.124" transform="translate(37.62 13.748)" fill="#8c6f35"></path><path id="Tracé_3624" data-name="Tracé 3624" d="M95.492,51.513a7.756,7.756,0,0,0,.878,0,5.724,5.724,0,0,0,5.48-4.681,19.063,19.063,0,0,0,.544-4.309.6.6,0,0,0-.95-.52.571.571,0,0,1,.254.52,19.032,19.032,0,0,1-.539,4.309,5.722,5.722,0,0,1-5.481,4.681Z" transform="translate(42.181 18.502)" fill="#8c6f35"></path><path id="Tracé_3625" data-name="Tracé 3625" d="M101.4,31.936a.6.6,0,0,1,.438.6s-.023.8-.023.789-.03,3.061-.03,3.069a46.81,46.81,0,0,1-.546,6.207c-.477,2.457-1.857,4-3.705,4.184a3.326,3.326,0,0,0,.541.025c1.922-.112,3.366-1.684,3.849-4.208a45.277,45.277,0,0,0,.554-6.207c0-.009.032-3.069.032-3.069s.027-.789.027-.789a.6.6,0,0,0-.438-.6,5.943,5.943,0,0,0-2.164-.287,7.126,7.126,0,0,1,1.466.287" transform="translate(43.081 13.976)" fill="#8c6f35"></path><path id="Tracé_3626" data-name="Tracé 3626" d="M97.893,49.362h.013c-2.811-.147-4.716-2.3-5.246-6.013a12.335,12.335,0,0,1,2.66-9.893A9.161,9.161,0,0,1,102.1,30.6a1.859,1.859,0,0,1,.2,0c-.3-.014-.608-.014-.9,0a9.174,9.174,0,0,0-6.779,2.86,12.41,12.41,0,0,0-2.663,9.893c.58,4,2.742,6.2,5.931,6.013" transform="translate(40.562 13.509)" fill="#8c6f35"></path><path id="Tracé_3627" data-name="Tracé 3627" d="M92.114,48.788a2.533,2.533,0,0,1,.121-1.165c-.182-.123-.362-.245-.544-.382a2.7,2.7,0,0,0-.267,1.547c.241,1.664,2.6,2.689,5.938,2.617-2.969-.075-5.02-1.073-5.249-2.617" transform="translate(40.374 20.867)" fill="#8c6f35"></path><path id="Tracé_3628" data-name="Tracé 3628" d="M107.135,46.641c-.058-.518.111-6.913.2-9.576a35.017,35.017,0,0,0-.264-6.341,8.068,8.068,0,0,1,1.189-.172,5.26,5.26,0,0,0-.551-.012,7.7,7.7,0,0,0-1.331.183,34.647,34.647,0,0,1,.265,6.341c-.094,2.663-.265,9.058-.206,9.576.149,1.279.708,2.116,2.951,2.05.048,0,.1-.01.154-.014-1.789-.085-2.279-.869-2.408-2.036" transform="translate(46.99 13.489)" fill="#8c6f35"></path><path id="Tracé_3629" data-name="Tracé 3629" d="M110.381,33.836a.6.6,0,0,0,.624-.258c1.481-2.2,2.958-3.16,5.045-3.294-.143-.006-.277-.025-.425-.022-2.23.063-3.777,1.028-5.311,3.316a.7.7,0,0,1-.137.147.674.674,0,0,0,.2.111" transform="translate(48.667 13.367)" fill="#8c6f35"></path><path id="Tracé_3630" data-name="Tracé 3630" d="M115.809,44.621c-.045-.412.006-4.125.045-6.375a26.539,26.539,0,0,0,.03-3.544,2.85,2.85,0,0,0-3.018-2.77c-.065,0-.13.025-.2.035A2.837,2.837,0,0,1,115.19,34.7a26.048,26.048,0,0,1-.03,3.544c-.04,2.251-.092,5.963-.04,6.375.281,2.438.567,3.215,2.892,3.153.029,0,.065-.014.094-.014-1.768-.091-2.041-.933-2.3-3.139" transform="translate(49.768 14.104)" fill="#8c6f35"></path><path id="Tracé_3631" data-name="Tracé 3631" d="M126.924,46.922c.934-.027,3.2-.509,3.978-4.4,1.432-7.269.588-11.009.172-12.258a2.737,2.737,0,0,1,1.234-.379c-.172-.01-.343-.023-.539-.02a2.853,2.853,0,0,0-1.4.4c.422,1.249,1.273,4.988-.166,12.258-.7,3.555-2.659,4.26-3.7,4.37a2.105,2.105,0,0,0,.422.026" transform="translate(55.879 13.193)" fill="#8c6f35"></path><path id="Tracé_3632" data-name="Tracé 3632" d="M124.015,50.38c3.939-.11,5.722-2.1,7.089-7.918a.6.6,0,0,0-.265-.659.619.619,0,0,0-.663.029.626.626,0,0,1,.242.63c-1.355,5.747-3.121,7.762-6.965,7.912.189,0,.373.01.562.006" transform="translate(54.532 18.429)" fill="#8c6f35"></path><path id="Tracé_3633" data-name="Tracé 3633" d="M121.687,34.783c0,.029-.091,3.219-.055,9.419a4.451,4.451,0,0,0,4.746,4.5c.123,0,.232-.013.349-.016a4.529,4.529,0,0,1-3.045-1.221,4.587,4.587,0,0,1-1.355-3.258c-.04-6.2.05-9.39.056-9.419a13.663,13.663,0,0,0-.412-4.384,11.083,11.083,0,0,1,1.449-.262,4.511,4.511,0,0,0-.473-.022,8.949,8.949,0,0,0-1.671.284,13.333,13.333,0,0,1,.411,4.384" transform="translate(53.57 13.302)" fill="#8c6f35"></path><path id="Tracé_3634" data-name="Tracé 3634" d="M119.465,48.11a2.891,2.891,0,0,1,.277-1.546c-.169-.12-.345-.244-.516-.379a3.161,3.161,0,0,0-.454,1.925c.2,1.744,2.9,2.895,6.587,2.814-3.325-.069-5.7-1.182-5.894-2.814" transform="translate(52.456 20.401)" fill="#8c6f35"></path><path id="Tracé_3635" data-name="Tracé 3635" d="M63.488,52.985a8.3,8.3,0,0,1,5.9,3.356,3.467,3.467,0,0,0,.528-.314,7.974,7.974,0,0,0-6.282-3.059c-.05,0-.1.014-.146.017" transform="translate(28.044 23.395)" fill="#8c6f35"></path><path id="Tracé_3636" data-name="Tracé 3636" d="M63.252,66.681c4.384,2.958,5.66,4.409,5.941,6.729a4.478,4.478,0,0,1-.983,3.537,4.264,4.264,0,0,1-2.905,1.433c.179.009.359.03.541.025a4.278,4.278,0,0,0,3.144-1.463,4.51,4.51,0,0,0,.986-3.539c-.283-2.313-1.557-3.767-5.943-6.726-3.8-2.556-5.2-4.368-5.532-7.17a6.492,6.492,0,0,1,1.377-5.179,8.71,8.71,0,0,1,6.4-2.627c-.235-.006-.473-.006-.708,0A8.741,8.741,0,0,0,59.1,54.334a6.491,6.491,0,0,0-1.38,5.174c.34,2.807,1.739,4.621,5.535,7.173" transform="translate(25.466 22.835)" fill="#8c6f35"></path><path id="Tracé_3637" data-name="Tracé 3637" d="M58.2,69.8a3.225,3.225,0,0,1,.471-2.145c-.105-.177-.219-.352-.313-.542a3.1,3.1,0,0,0-.94,2.7c.309,2.494,3.02,3.888,7.249,3.756-3.785-.053-6.178-1.429-6.468-3.764" transform="translate(25.352 29.646)" fill="#8c6f35"></path><path id="Tracé_3638" data-name="Tracé 3638" d="M117.109,60.091a3.148,3.148,0,0,1-.7,2.375,7.188,7.188,0,0,1-4.534,2.225.625.625,0,0,0,.319.058,7.378,7.378,0,0,0,4.993-2.294,3.162,3.162,0,0,0,.7-2.373,2.291,2.291,0,0,0-2.338-2.16,2.384,2.384,0,0,0-.275.05,2.329,2.329,0,0,1,1.837,2.119" transform="translate(49.418 25.584)" fill="#8c6f35"></path><path id="Tracé_3639" data-name="Tracé 3639" d="M117.936,67.111a6.783,6.783,0,0,1-3.813,1.706,3.741,3.741,0,0,0,.512.032A6.3,6.3,0,0,0,118,67.634c0-.072,0-.14-.006-.216-.017-.117-.032-.208-.056-.307" transform="translate(50.411 29.644)" fill="#8c6f35"></path><path id="Tracé_3640" data-name="Tracé 3640" d="M116.334,55.71a2.125,2.125,0,0,0,.268-.035c-1.286-.164-2.624-1.2-5.242-3.975l2.46-.094c0-.009-.01-.013-.019-.017l-3.221.115c2.976,3.143,4.288,4.053,5.754,4.005" transform="translate(48.846 22.788)" fill="#8c6f35"></path><path id="Tracé_3641" data-name="Tracé 3641" d="M108.733,68.906a11.91,11.91,0,0,1,2.537-9.2A8.108,8.108,0,0,1,116.9,56.77c-.182,0-.352-.022-.542-.013a8.083,8.083,0,0,0-5.872,2.953,11.919,11.919,0,0,0-2.537,9.205c.536,4.366,3.212,6.795,7.341,6.648.046,0,.079-.006.125-.006-3.756-.131-6.184-2.517-6.687-6.651" transform="translate(47.641 25.069)" fill="#8c6f35"></path><path id="Tracé_3642" data-name="Tracé 3642" d="M124.08,60.728a.607.607,0,0,0,.662-.274c1.39-2.276,2.8-3.515,4.214-3.707a3.27,3.27,0,0,0-.523-.029c-1.494.065-3,1.326-4.468,3.74a.7.7,0,0,1-.115.14.633.633,0,0,0,.231.13" transform="translate(54.707 25.053)" fill="#8c6f35"></path><path id="Tracé_3643" data-name="Tracé 3643" d="M120.833,72.819c-.043-.456.242-4.564.456-7.579.159-2.356.3-4.387.317-5.056a10.055,10.055,0,0,0-.386-3.309,4.717,4.717,0,0,1,.9-.141,4.725,4.725,0,0,0-.5-.009,5.169,5.169,0,0,0-1.176.156,10.213,10.213,0,0,1,.389,3.31c-.016.666-.156,2.7-.322,5.055-.21,3.012-.5,7.128-.454,7.579a2.093,2.093,0,0,0,2.474,2.007,2.141,2.141,0,0,0,.262-.017,2.007,2.007,0,0,1-1.955-2" transform="translate(53.027 25.055)" fill="#8c6f35"></path><path id="Tracé_3644" data-name="Tracé 3644" d="M139.105,66.362a6.6,6.6,0,0,1-3.79,1.724,3.9,3.9,0,0,0,.5.029,6.187,6.187,0,0,0,3.364-1.224,1.575,1.575,0,0,0,0-.2,1.5,1.5,0,0,0-.072-.327" transform="translate(59.772 29.313)" fill="#8c6f35"></path><path id="Tracé_3645" data-name="Tracé 3645" d="M138.266,59.346a3.173,3.173,0,0,1-.7,2.376,7.129,7.129,0,0,1-4.528,2.223.67.67,0,0,0,.317.063,7.421,7.421,0,0,0,4.99-2.292,3.158,3.158,0,0,0,.7-2.372,2.3,2.3,0,0,0-2.3-2.158,1.612,1.612,0,0,0-.283.049,2.343,2.343,0,0,1,1.8,2.111" transform="translate(58.766 25.26)" fill="#8c6f35"></path><path id="Tracé_3646" data-name="Tracé 3646" d="M129.922,68.168a11.933,11.933,0,0,1,2.527-9.223,8.073,8.073,0,0,1,5.569-2.915c-.177,0-.336-.017-.516-.012a8.035,8.035,0,0,0-5.835,2.935,11.911,11.911,0,0,0-2.526,9.215c.526,4.306,3.257,6.8,7.3,6.654.045,0,.085-.009.134-.009-3.686-.14-6.155-2.578-6.652-6.646" transform="translate(57 24.744)" fill="#8c6f35"></path><path id="Tracé_3647" data-name="Tracé 3647" d="M84.9,78.98a2.072,2.072,0,0,1-.483-1.5c-.052-2.065,3.607-17.069,5.019-22.674a.124.124,0,0,0,.013-.058c0-.009.12-.773.255-1.409a5.617,5.617,0,0,0,.063-2.129,2.9,2.9,0,0,1,.792-.193,5.119,5.119,0,0,0-.682-.014,2.421,2.421,0,0,0-.975.221,5.482,5.482,0,0,1-.068,2.122c-.133.639-.249,1.4-.252,1.406a.179.179,0,0,1-.012.059c-1.416,5.6-5.073,20.614-5.022,22.673a2.068,2.068,0,0,0,.49,1.5,2.34,2.34,0,0,0,1.729.414h.055a1.815,1.815,0,0,0,.337-.013,2.025,2.025,0,0,1-1.26-.405" transform="translate(36.904 22.527)" fill="#8c6f35"></path><path id="Tracé_3648" data-name="Tracé 3648" d="M94.944,72.674a.617.617,0,0,0,.6-.418c1.153-3.44,6.814-17.06,7.546-18.711a8.084,8.084,0,0,0,.691-2.918c.156-.023.36-.048.593-.069a5.276,5.276,0,0,0-.568-.009,5.214,5.214,0,0,0-.89.087,8.258,8.258,0,0,1-.689,2.919c-.738,1.641-6.4,15.271-7.547,18.706a.616.616,0,0,1-.137.219.617.617,0,0,0,.405.193" transform="translate(41.76 22.326)" fill="#8c6f35"></path><path id="Tracé_3649" data-name="Tracé 3649" d="M94.07,75.343c-.519-.865-3.113-11.764-4.621-18.431a.209.209,0,0,1-.016-.037.624.624,0,0,0-.629-.467.611.611,0,0,0-.405.19.727.727,0,0,1,.17.28.333.333,0,0,1,.01.04c1.514,6.668,4.1,17.56,4.628,18.428.662.969,1.786,1.387,3.537,1.334a.081.081,0,0,0,.045-.02,3.351,3.351,0,0,1-2.719-1.316" transform="translate(39.048 24.916)" fill="#8c6f35"></path><path id="Tracé_3650" data-name="Tracé 3650" d="M102.43,72.567c-.065-.52-.283-5.324-.458-9.185-.183-4.073-.3-6.589-.342-6.906a.607.607,0,0,0-.5-.522.628.628,0,0,0-.535.18.557.557,0,0,1,.169.352c.037.314.161,2.83.345,6.909.177,3.854.4,8.663.454,9.181.311,2.5,1.672,3.727,4.067,3.64.081,0,.172-.026.257-.029-2.005-.133-3.172-1.342-3.454-3.62" transform="translate(44.434 24.713)" fill="#8c6f35"></path><path id="Tracé_3651" data-name="Tracé 3651" d="M73.933,53.216a2.309,2.309,0,0,0-.371-.016.228.228,0,0,1-.04,0,2.119,2.119,0,0,0,.411.013" transform="translate(32.476 23.499)" fill="#8c6f35"></path><path id="Tracé_3652" data-name="Tracé 3652" d="M74.31,59.244a.5.5,0,0,0,.017-.091,2.4,2.4,0,0,1-.245.059c.084.007.151.032.228.032" transform="translate(32.724 26.129)" fill="#8c6f35"></path><path id="Tracé_3653" data-name="Tracé 3653" d="M71.653,53.986a.256.256,0,0,1-.228.238c-.117.013-.457.049-.826.065a10.169,10.169,0,0,0,1.432-.066.247.247,0,0,0,.222-.242,6.838,6.838,0,0,0-.061-1.44,9.016,9.016,0,0,0-.2-1.084,4.673,4.673,0,0,1,.745-.111,2.868,2.868,0,0,0-.385-.009,4.545,4.545,0,0,0-.967.125,7.911,7.911,0,0,1,.195,1.086,7.5,7.5,0,0,1,.071,1.439" transform="translate(31.185 22.675)" fill="#8c6f35"></path><path id="Tracé_3654" data-name="Tracé 3654" d="M72.121,61.214a15.3,15.3,0,0,1,.082-2.376l.144-2.264c.069-.865.1-1.361.089-1.6v.042a1.9,1.9,0,0,0,0-.272c0-.063-.006-.137-.006-.21a.259.259,0,0,0-.226-.249c-.172-.019-.313-.027-.4-.037a1.229,1.229,0,0,1-.921-.333.922.922,0,0,1-.17-.523,5.636,5.636,0,0,1-.608,0,1,1,0,0,0,.166.536,1.314,1.314,0,0,0,.933.334c.076,0,.223.013.389.03a.252.252,0,0,1,.226.252c0,.071,0,.147.007.208a1.453,1.453,0,0,1,0,.275v-.042c.006.236-.023.732-.088,1.6l-.148,2.266a16.76,16.76,0,0,0-.085,2.373,2.268,2.268,0,0,0,2.615,2.049c.068,0,.118-.01.179-.016a2.185,2.185,0,0,1-2.181-2.036" transform="translate(30.968 23.58)" fill="#8c6f35"></path><path id="Tracé_3655" data-name="Tracé 3655" d="M79,59.4a1.65,1.65,0,0,0,.353.022,3.769,3.769,0,0,0,1.55-.363,1.319,1.319,0,0,0,.012-.378A3.4,3.4,0,0,1,79,59.4" transform="translate(34.897 25.918)" fill="#8c6f35"></path><path id="Tracé_3656" data-name="Tracé 3656" d="M80.5,54.768A1.65,1.65,0,0,1,80.128,56a3.786,3.786,0,0,1-2.317,1.152.3.3,0,0,0,.177.059,3.949,3.949,0,0,0,2.659-1.221,1.632,1.632,0,0,0,.369-1.228,1.17,1.17,0,0,0-1.172-1.109,1.629,1.629,0,0,0-.262.042,1.2,1.2,0,0,1,.914,1.07" transform="translate(34.371 23.7)" fill="#8c6f35"></path><path id="Tracé_3657" data-name="Tracé 3657" d="M76.129,59.595a6.539,6.539,0,0,1,1.4-5.06,4.479,4.479,0,0,1,3.1-1.6,4.087,4.087,0,0,0-.482-.012,4.457,4.457,0,0,0-3.225,1.613,6.554,6.554,0,0,0-1.393,5.06c.291,2.379,1.8,3.748,4.044,3.669.075,0,.141-.009.213-.014a3.751,3.751,0,0,1-3.652-3.655" transform="translate(33.336 23.375)" fill="#8c6f35"></path><path id="Tracé_3658" data-name="Tracé 3658" d="M72.83,63.657a2.178,2.178,0,0,1-.6-.435,2.115,2.115,0,0,1-.642-.483l-.007.013a2.819,2.819,0,0,0,1.249,1.426c4.161,2.06,9.081-3.633,12.428.264l.01-.014a5.076,5.076,0,0,0-.718-1.172c-3.307-2.477-7.846,2.32-11.72.4" transform="translate(31.619 27.619)" fill="#8c6f35"></path><path id="Tracé_3659" data-name="Tracé 3659" d="M153.235,78.1a12.282,12.282,0,0,1-7.314-1.919,9.562,9.562,0,0,0-2.259,1C66.918,106.731,26.091,62.619,26.091,62.619c47.165,59.132,132.12,14.557,132.12,14.557-.039-.019-.071-.035-.108-.05a14.365,14.365,0,0,1-4.867.972" transform="translate(11.525 27.66)" fill="#8c6f35"></path><path id="Tracé_3660" data-name="Tracé 3660" d="M143.687,59.416a8.848,8.848,0,0,1-1.319,4.749c10.447-3.42,20.977-5.182,31.957-3.439l.02-.056c-9.244-4.066-19.714-3.795-30.658-1.254" transform="translate(62.887 25.422)" fill="#8c6f35"></path><path id="Tracé_3661" data-name="Tracé 3661" d="M74.569,28.951c-.229-1.987-.843-2.981-3.588-2.9a8.115,8.115,0,0,0-1.422.154,3.158,3.158,0,0,1,.062.386c.2,3.509-.2,9.967-.706,18.147l-.033.539a42.667,42.667,0,0,0-.141,4.363c.063,1.867.6,2.857,3.268,2.775a6.461,6.461,0,0,0,1.674-.251c-.058-.356-.079-.567-.136-1.041-.15-1.292.333-11.114.9-18.134a22.389,22.389,0,0,0,.127-4.038" transform="translate(30.359 11.505)" fill="#004f9a"></path><path id="Tracé_3662" data-name="Tracé 3662" d="M85.369,47.777a4.587,4.587,0,0,0,1.142-3.62c-.218-1.893-1.116-3.2-3.557-5.18-1.53-1.249-2.327-2.109-2.478-3.361a2.443,2.443,0,0,1,.6-1.867,2.72,2.72,0,0,1,2.021-.924,5.719,5.719,0,0,1,3.5,1.267,2.331,2.331,0,0,0,.222-.789c-.059-2.031-3.276-2.163-4.654-2.125A6.313,6.313,0,0,0,77.5,33.11a4.276,4.276,0,0,0-1.008,3.377,6.716,6.716,0,0,0,2.635,4.182l1.843,1.671A3.729,3.729,0,0,1,82.4,44.77a3.3,3.3,0,0,1-.728,2.561,2.919,2.919,0,0,1-2.152.992.188.188,0,0,1-.062-.006,6.064,6.064,0,0,1-3.875-1.8,3.971,3.971,0,0,0-.242,1.318c.234,2.031,3,2.261,4.634,2.212a7.321,7.321,0,0,0,5.391-2.272" transform="translate(33.279 13.77)" fill="#004f9a"></path><path id="Tracé_3663" data-name="Tracé 3663" d="M90.561,50.049c-.225-1.925.15-9.739.161-10.069.078-1.475.169-3.985.123-4.455-.195-1.618-1.119-2.32-3.013-2.268l-.284.01a2.758,2.758,0,0,0-.829.1,8.978,8.978,0,0,1,.15,2.272l-.007.574c-.037,2.435-.458,8-.47,8.224-.082,1.625-.183,4.389-.121,4.885.148,1.371.738,2.2,3.159,2.14a4.786,4.786,0,0,0,1.321-.208,10.307,10.307,0,0,1-.189-1.205M87.093,28.107c.17,1.46,1.9,2.7,3.7,2.653a.525.525,0,0,1,.121-.013c-.291-1.887-.456-2.879-.456-2.924A1.631,1.631,0,0,0,88.68,26.3a1.663,1.663,0,0,0-1.267.512,1.64,1.64,0,0,0-.32,1.293" transform="translate(38.099 11.618)" fill="#004f9a"></path><path id="Tracé_3664" data-name="Tracé 3664" d="M108.056,53.071c.773-1.922.988-3.653,1.123-9.267,0,.006.2-9.792.255-12.023a22.937,22.937,0,0,0-6.76-1.185,9.2,9.2,0,0,0-6.783,2.86,12.359,12.359,0,0,0-2.653,9.893c.574,4,2.735,6.2,5.928,6.013A5.579,5.579,0,0,0,103.52,47.1a.6.6,0,0,1,1.07.415,18.774,18.774,0,0,1-.546,4.308,5.717,5.717,0,0,1-5.48,4.681A8.365,8.365,0,0,1,92.776,54.6a2.575,2.575,0,0,0-.265,1.547c.254,1.753,2.859,2.8,6.486,2.6a11.9,11.9,0,0,0,6.132-2.026,8.364,8.364,0,0,0,2.927-3.645m-6.89-5.794c-1.877.105-3.255-1.277-3.586-3.6a19.32,19.32,0,0,1,.855-8.013,4.882,4.882,0,0,1,4.484-3.538,5.931,5.931,0,0,1,2.272.281.615.615,0,0,1,.441.6s-.03.8-.03.789-.032,3.061-.032,3.069a47.253,47.253,0,0,1-.548,6.207c-.489,2.524-1.932,4.1-3.857,4.208" transform="translate(40.851 13.509)" fill="#004f9a"></path><path id="Tracé_3665" data-name="Tracé 3665" d="M123.056,39.36l.2-3.283a8.8,8.8,0,0,0,.043-1.7,4.514,4.514,0,0,0-4.919-4.119c-2.23.062-3.773,1.028-5.311,3.316a.6.6,0,0,1-1.094-.229c-.339-1.992-1.237-2.744-3.191-2.686a7.965,7.965,0,0,0-1.331.183,34.915,34.915,0,0,1,.265,6.341c-.089,2.663-.261,9.058-.2,9.576.147,1.279.7,2.116,2.957,2.05a4.853,4.853,0,0,0,.957-.128,59.434,59.434,0,0,1,.581-11.251c.5-2.922,1.992-4.7,4.02-4.763a2.853,2.853,0,0,1,3.018,2.77,25.4,25.4,0,0,1-.032,3.544c-.042,2.251-.094,5.963-.045,6.375.281,2.437.568,3.215,2.891,3.153a5.2,5.2,0,0,0,1.257-.244,49.539,49.539,0,0,1-.069-8.908m-11.019,9.207v0a.521.521,0,0,0-.136.019.684.684,0,0,1,.136-.016" transform="translate(47.467 13.366)" fill="#004f9a"></path><path id="Tracé_3666" data-name="Tracé 3666" d="M137.116,48.206c2-6.979,2.578-13,2.278-15.64-.244-2.073-1-2.732-3.126-2.7a2.849,2.849,0,0,0-1.39.4c.425,1.249,1.269,4.99-.166,12.258-.773,3.888-3.042,4.368-3.982,4.4-.9.027-2.464-.343-2.781-3.077-.128-1.138.013-7.638.107-10.921a2.652,2.652,0,0,0-.642-2.008,3.015,3.015,0,0,0-2.272-.693,9.3,9.3,0,0,0-1.672.285,13.78,13.78,0,0,1,.411,4.384c0,.027-.091,3.219-.056,9.419a4.451,4.451,0,0,0,4.75,4.5,5.533,5.533,0,0,0,4.014-1.708.6.6,0,0,1,.977.6c-1.368,5.814-3.153,7.808-7.089,7.918a9.043,9.043,0,0,1-6.171-2.223,3.118,3.118,0,0,0-.451,1.925c.2,1.766,2.963,2.925,6.716,2.814,5.112-.136,8.658-3.48,10.545-9.925" transform="translate(52.934 13.193)" fill="#004f9a"></path><path id="Tracé_3667" data-name="Tracé 3667" d="M72.932,77.357a7.329,7.329,0,0,0,1.644-5.813c-.358-2.922-2.029-5.022-6.387-8.013-3.676-2.51-4.869-3.659-5.146-5.928a3.571,3.571,0,0,1,.8-2.8,3.811,3.811,0,0,1,2.839-1.279A8.138,8.138,0,0,1,73.228,56.9c.515-.261,1.334-.8,1.231-1.543-.3-2.118-3.8-3.789-7.631-3.656A8.74,8.74,0,0,0,60.35,54.33a6.512,6.512,0,0,0-1.381,5.163c.345,2.811,1.744,4.624,5.543,7.18,4.377,2.964,5.659,4.4,5.943,6.727a4.529,4.529,0,0,1-.988,3.535A4.3,4.3,0,0,1,66.325,78.4,7.552,7.552,0,0,1,59.5,73.923a3.065,3.065,0,0,0-.937,2.69c.309,2.507,3.049,3.913,7.325,3.763a9.492,9.492,0,0,0,7.047-3.019" transform="translate(25.858 22.832)" fill="#004f9a"></path><path id="Tracé_3668" data-name="Tracé 3668" d="M113.671,66.86c.5-3.721,2.034-6.074,4.015-6.143a2.3,2.3,0,0,1,2.341,2.161,3.132,3.132,0,0,1-.7,2.369,7.4,7.4,0,0,1-4.991,2.3.633.633,0,0,1-.5-.18.6.6,0,0,1-.164-.5m-.072,4.885a12.609,12.609,0,0,1-.046-2.385l0-.131a.6.6,0,0,1,.581-.584l.734-.029c2.909-.1,5.487-1.139,6.878-2.774a3.916,3.916,0,0,0,1.012-3.042c-.3-2.425-2.311-3.88-5.255-3.774a8.091,8.091,0,0,0-5.872,2.961,11.877,11.877,0,0,0-2.537,9.2c.539,4.368,3.211,6.8,7.341,6.658,2.21-.081,4-.74,4.9-1.791a2.247,2.247,0,0,0,.565-1.781,1.937,1.937,0,0,0-.055-.322,6.643,6.643,0,0,1-4.082,1.756c-2.227.075-3.865-1.478-4.167-3.96m5.079-16.039a3.113,3.113,0,0,0,1.277-.291,17.956,17.956,0,0,1-3.806-3.834l-3.219.111c2.969,3.147,4.283,4.063,5.748,4.014" transform="translate(48.146 22.784)" fill="#004f9a"></path><path id="Tracé_3669" data-name="Tracé 3669" d="M125.82,59.769c-.006,0-.009,0-.009-.01s0,.01.009.01m6.707-2.635a1.415,1.415,0,0,0-1.27-.424c-1.5.069-3,1.326-4.478,3.74a.6.6,0,0,1-.659.274.612.612,0,0,1-.453-.551c-.026-.311-.048-.685-.055-.76a.4.4,0,0,0,.017.078.393.393,0,0,1-.017-.107c-.236-1.9-1.138-2.742-2.856-2.664a5.155,5.155,0,0,0-1.179.156,10.061,10.061,0,0,1,.392,3.309c-.014.663-.159,2.706-.322,5.059-.213,3.006-.5,7.125-.456,7.576a2.1,2.1,0,0,0,2.471,2.011c.293-.013,1.126-.123,1.769-.2a9.663,9.663,0,0,1-.153-1.295c-.118-4.641.405-8.327,1.508-10.679a7.316,7.316,0,0,1,4.665-3.591,4.2,4.2,0,0,1,1.339-.153,2.5,2.5,0,0,0-.265-1.775m-6.733,2.618h0a.587.587,0,0,1-.164-.255.6.6,0,0,0,.164.255" transform="translate(53.532 25.048)" fill="#004f9a"></path><path id="Tracé_3670" data-name="Tracé 3670" d="M134.779,68.721a13.249,13.249,0,0,1-.076-2.513.6.6,0,0,1,.578-.588h.1l.639-.022a9.49,9.49,0,0,0,6.874-2.777A3.884,3.884,0,0,0,143.9,59.78c-.3-2.429-2.308-3.871-5.255-3.77a8.007,8.007,0,0,0-5.833,2.938,11.928,11.928,0,0,0-2.535,9.213c.526,4.309,3.264,6.8,7.3,6.661,2.2-.079,4.045-.754,4.942-1.811a2.188,2.188,0,0,0,.567-1.76,1.634,1.634,0,0,0-.071-.324,6.532,6.532,0,0,1-4.069,1.756c-2.227.078-3.865-1.471-4.174-3.96m.037-4.879c.5-3.721,2.046-6.071,4.063-6.14a2.292,2.292,0,0,1,2.3,2.155,3.163,3.163,0,0,1-.7,2.369,7.365,7.365,0,0,1-4.994,2.3.61.61,0,0,1-.5-.174.628.628,0,0,1-.161-.507" transform="translate(57.503 24.738)" fill="#004f9a"></path><path id="Tracé_3671" data-name="Tracé 3671" d="M115.1,73.657c-.04-.3-.31-4.262-.724-10.281-.306-4.409-.647-9.412-.682-9.711-.268-2.22-1.5-3.209-3.871-3.129a7.712,7.712,0,0,0-.89.091,8.078,8.078,0,0,1-.691,2.918c-.735,1.646-6.39,15.274-7.543,18.716a.619.619,0,0,1-.6.415.63.63,0,0,1-.562-.476c-1.7-7.24-4.632-19.074-5.269-20.051a4.47,4.47,0,0,0-3.229-.953,2.682,2.682,0,0,0-.975.221A5.572,5.572,0,0,1,90,53.545c-.131.64-.247,1.4-.247,1.4a.2.2,0,0,0-.012.056c-1.42,5.605-5.078,20.612-5.029,22.674a2.069,2.069,0,0,0,.486,1.5,2.364,2.364,0,0,0,1.737.421h.049a2.971,2.971,0,0,0,.728-.078,37.594,37.594,0,0,1,.251-3.956c.274-2.245,2.684-15.963,2.7-16.051a.62.62,0,0,1,1.211-.052.134.134,0,0,0,.019.039c1.5,6.669,4.1,17.565,4.621,18.438.66.956,1.794,1.38,3.529,1.326.225-.062.7-.557,1.178-2,.258-.7,6.339-16.956,7.092-18.584a.6.6,0,0,1,.639-.34.615.615,0,0,1,.5.52c.04.317.159,2.827.345,6.9.172,3.862.394,8.669.454,9.192.31,2.5,1.674,3.717,4.064,3.636a8.17,8.17,0,0,0,1.375-.215,47.152,47.152,0,0,1-.6-4.723" transform="translate(37.422 22.321)" fill="#004f9a"></path><path id="Tracé_3672" data-name="Tracé 3672" d="M74.725,61.344a11.562,11.562,0,0,1,0-1.974c.027-.378.058-1.094.094-2.108a16.759,16.759,0,0,1,.161-2.03.256.256,0,0,1,.213-.221,3.991,3.991,0,0,1,.493-.037l.891-.023c.244,0,.518-.014.714-.022-.042-.2-.1-.962-1.436-.908a2.884,2.884,0,0,1-.681,0,.258.258,0,0,1-.079-.209,2.49,2.49,0,0,0,.022-.257,1.032,1.032,0,0,1,.022-.131,4.925,4.925,0,0,0,.036-.956c-.12-.989-1.058-1.163-1.811-1.139a4.659,4.659,0,0,0-.979.125,8.529,8.529,0,0,1,.2,1.087,6.993,6.993,0,0,1,.062,1.436.25.25,0,0,1-.225.239,10.5,10.5,0,0,1-1.533.069.953.953,0,0,0,.17.528,1.246,1.246,0,0,0,.92.337c.088.006.231.019.4.035a.255.255,0,0,1,.229.252c0,.074.006.147.009.208a1.392,1.392,0,0,1,0,.271.191.191,0,0,0,0-.043c.006.242-.023.734-.092,1.609l-.146,2.264a16.023,16.023,0,0,0-.082,2.366A2.264,2.264,0,0,0,74.9,64.164a2.232,2.232,0,0,0,1.659-.585,1.467,1.467,0,0,0,.3-.976,2.1,2.1,0,0,1-.581.1,1.461,1.461,0,0,1-1.56-1.357" transform="translate(31.313 22.672)" fill="#004f9a"></path><path id="Tracé_3673" data-name="Tracé 3673" d="M78.9,59.873a6.494,6.494,0,0,1-.046-1.351.251.251,0,0,1,.241-.245l.311-.013.089,0a5.233,5.233,0,0,0,3.793-1.528,2.185,2.185,0,0,0,.567-1.707c-.166-1.338-1.315-2.164-2.934-2.111a4.475,4.475,0,0,0-3.222,1.62,6.565,6.565,0,0,0-1.4,5.058c.3,2.379,1.809,3.751,4.05,3.671a3.418,3.418,0,0,0,2.693-1.031,1.413,1.413,0,0,0,.213-1.018,3.446,3.446,0,0,1-2.165.745A2.134,2.134,0,0,1,78.9,59.873m2.154-5.892a1.157,1.157,0,0,1,1.171,1.109,1.631,1.631,0,0,1-.363,1.231,3.951,3.951,0,0,1-2.669,1.217.232.232,0,0,1-.2-.076.25.25,0,0,1-.075-.212c.267-1.978,1.081-3.232,2.141-3.268" transform="translate(33.681 23.373)" fill="#004f9a"></path><path id="Tracé_3674" data-name="Tracé 3674" d="M71.588,62.222a2.952,2.952,0,0,0,1.217.722c3.182,1.336,9.975-4.626,12.462.956l-.01.016c-3.346-3.9-8.267,1.794-12.428-.258a2.84,2.84,0,0,1-1.249-1.433Z" transform="translate(31.619 27.152)" fill="#004f9a"></path></g><g id="Groupe_621" data-name="Groupe 621" transform="translate(0 0)"><g id="Groupe_620" data-name="Groupe 620" clip-path="url(#clip-path)"><path id="Tracé_3677" data-name="Tracé 3677" d="M73.73,58.89l-.291.218L73,58.986l-.753-.7-.218-.46.293-.682c-.242-.285-.234-.389-.234-.389L68.775,54.82l-.518-.587-.378.434a21.013,21.013,0,0,0-2.435,4.52c-.105.238-.437.618-.525.829A11.019,11.019,0,0,1,68.243,63.2s.056.565.565.594a3.894,3.894,0,0,1,1.244.424,8.888,8.888,0,0,0,2.4-.283c.283-.255-.143,1.808-1.471,2.431s-4.129.112-4.836.565-1.629.4-2.7-.646c-.444-.435-.278,1.1-.278,1.1.238,1.805,3.107,5.725,3.107,5.725,1.959,1.484,1.064,4.563.686,5.164s-3.15,8.329-3.15,8.329c.309,1.035-.574.952-.7,1.078s-.728.223-1.469-.392.1-1.373.1-1.373c.841-.223.813-.727.813-.727s-.855-.14,1.008-2.576,1.511-3.891.825-6.718a7.676,7.676,0,0,0-6.214-5.724,5.922,5.922,0,0,1-2.226-.742,2.186,2.186,0,0,1-.812-.182s-.532.405-.979.812a10.655,10.655,0,0,0-1.471,4.717,4.008,4.008,0,0,1-.069,1.693l-.841-.2a12.061,12.061,0,0,0,.914,3.113,18.376,18.376,0,0,0,2.236,2.585,2.1,2.1,0,0,1,.518,1.384l-2.38,1.149.043-.9-.183-.448a3.762,3.762,0,0,1-.868-1.006,5.4,5.4,0,0,0-.825-2.533s-.112,3.666-.043,4.983.309,1.511.309,1.511a3.42,3.42,0,0,1,.853,1.554l-2.967.265.154-1.175L49,85.556c.672-1.456.532-6.215.532-6.215l.309-1.987a21.737,21.737,0,0,0-1.665-3.263,13.111,13.111,0,0,0,.042-4.729,15.271,15.271,0,0,1-.588-3.528c-1.286-1.153-1.633,2.106-1.633,2.106-.228,1.136-.732,1.055-1.138,2.3-.365,1.12-1.289,5.794-1.289,5.794s-.587,2.6-.238,3.361.855,2.379.855,2.379c.363.574.251.868.251.868s-.153-.042-.63.252a4.724,4.724,0,0,1-1.874.2c.238-.546-.14-2.24,0-3.528a36.493,36.493,0,0,0-.252-4.843l.209-4.717A12.2,12.2,0,0,0,40.7,72.776a52.338,52.338,0,0,1-.195-7.263,7.037,7.037,0,0,0-.189-2.689,13.77,13.77,0,0,1,.228-2.377l.252-.76a4.745,4.745,0,0,1-.208-2.4l-4.018-1.106-1.553-.407-.407,1.133s-.2.407-.993.154-.518-.587-.518-.587l.741-2.03L32.8,54.135l-.8,2.422s.042.027-.63-.084-.546-.561-.546-.561l.7-2.183-.783-.267s-.686,2.086-.757,2.324-.476.294-1.063.056-.448-.588-.448-.588l3.457-9.406c1.54-2.967,2.422-2.729,2.422-2.729L33.8,44.842a2.124,2.124,0,0,1,.966-.378,6.554,6.554,0,0,1,.783-1.358,7.342,7.342,0,0,1,.6-.854c.309-.657,2.477-.336,2.477-.336.757-.448.686.209.686.209a4.478,4.478,0,0,1,1.667.7l.223-.182c-.35-.7,1.022-1.385,3.219-.812s2.744,1.736,2.533,2.17-.839.251-.839.251l-.267.882.28.294.28-.14c.728-.561,1.135-.35,1.135-.35l.966.686.433-1.162s-.518.154-1.231-.91a3.484,3.484,0,0,1-.532-2.253s-.979.14-.825-.223a5.961,5.961,0,0,0-.141-1.806c-.559-.657-.434-3.051-.434-3.051a11.382,11.382,0,0,1,.477-4.158,5.414,5.414,0,0,0,1.874-.839,2.572,2.572,0,0,1,1.4-.588,2.835,2.835,0,0,1-.28-1.329s-1.077.755-1.077.154a10.08,10.08,0,0,1,1.287-2.548,2.386,2.386,0,0,1,.434-.617,4.037,4.037,0,0,1,.084-2.323c.42-1.331,2.548-1.667,2.548-1.667s2.2.659,2.687,1.316.154,2.38.154,2.38a1.017,1.017,0,0,1,.392.42,10.494,10.494,0,0,1-.252,1.763s-.924,1.554-.294,1.805,1.162,1.736,1.162,1.736,1.582.672,2.085.952.223,1.191.223,1.191.294.433.714,1.021.183,4.283.183,4.283-.5,1.876.532,2.8a19.2,19.2,0,0,1,2.519,3.583l2.212-1.231,1.091.476s-.209.111.085-.659a4.184,4.184,0,0,1,1.469-1.5c-.2-.855-3.261-3.332-3.261-3.332l.112-.98,5,1.485c-2.176-3.026-.683-3.571-.683-3.571L72.207,38.9l1.38,3.291,1.58.066.384,1.26-.265.956L76.56,45.96l-.424,2.176,1.538,3.451a.344.344,0,0,0,.324.336c.5-.127.937.336,1.287,1.2a1.061,1.061,0,0,1-.252,1.3s-.321.223.532,1.148a2.592,2.592,0,0,1,.169,3.247,13.2,13.2,0,0,1-.953,1.75,9.11,9.11,0,0,1-1.315.336l-.559.378c-.939.685-2.3-.392-2.66-.91s.071-1.736.071-1.736l-.311-.215ZM55.7,40.374l-.353,2.555,2.063-.551-.471-2.437Z" transform="translate(12.573 9.853)" fill="#fff"></path><path id="Tracé_3678" data-name="Tracé 3678" d="M66.845,80.587c-.708,1.292-1.7,3.733-1.7,3.733a8.242,8.242,0,0,1-1.22,2.478c-.655.777-1.452-.267-1.557-.461a2.112,2.112,0,0,0-.195-.3s-.151-.108-.141.336a1.177,1.177,0,0,0,1.433.992c.46-.141.424.053.424.053A26.911,26.911,0,0,1,61.43,89.2c-.443.265-.531.212-.531.212a1.488,1.488,0,0,1-1.433-1.61,3.92,3.92,0,0,1,.937-2.513,5.6,5.6,0,0,1,.939-.052.5.5,0,0,1,.495.14c.3.324.375-.11.267-.813s.407-.849.725-1.274a23.2,23.2,0,0,0,1.416-2.566,3.028,3.028,0,0,0,.283-2.422,17.153,17.153,0,0,1-.513-2.637c-.035-.8-1.786-2.885-2.389-3.521s-2.194-2.194-2.194-2.194l-.123.053a3.061,3.061,0,0,1,.433.614,6.526,6.526,0,0,0-1.531-.368c-1.29-.229-1.237-.443-1.237-.443,2.582-.529,3.2-1.769,3.2-1.769-3.2,2-4.389,1.4-4.389,1.4a6.336,6.336,0,0,0,2.194-1.522,9.361,9.361,0,0,0-2.141,1.15,6.879,6.879,0,0,1-1.2.866,5.12,5.12,0,0,0-.78,1.769c-.247.921-.83,2.868-.83,2.868A25.43,25.43,0,0,1,52.017,80c-.283,1.185-.742,4.776-.177,5.52s.16,1.238.16,1.238c-2.141.071-2.336.956-2.336.956a5.39,5.39,0,0,1,1.416-.443c1.548-.3,1.468.036,1.468.036a11.006,11.006,0,0,1,.5,1.326c.159.584.3,1.061.088,1.328a2.728,2.728,0,0,1-1.769.689c-.9.071-2.336-.655-2.3-1.522a13.08,13.08,0,0,1,.336-2.088c-.673-.8-.832-.9-.425-2.122a15.271,15.271,0,0,0,.319-5.184,51.1,51.1,0,0,1,.372-6.547,36,36,0,0,0-.336-4.9,2.927,2.927,0,0,1,.813-2.141,5.736,5.736,0,0,1,.195-2.317,1.669,1.669,0,0,0-.565,2.14,2.1,2.1,0,0,0-.851,2.124,7.711,7.711,0,0,1-4.332-3.9,4.136,4.136,0,0,0,1.328,2.413c.509.565.014,2.125-.693,3.93a33.2,33.2,0,0,0-1.5,6.847c-.336,2.513.231,2.637.672,3.7s-.193,1.063-.193,1.063c-1.752.088-1.841.742-1.841.742a6.651,6.651,0,0,1,1.61-.424c.92-.124.92.443,1.027.794s.637,1.2.389,1.734c-.425.913-1.982.639-2.742.425s-1.221-.691-1.221-1.026a13.322,13.322,0,0,1,.229-1.45c.372-.089.231-.408.124-.62s-.584-.618-.584-.866a2.065,2.065,0,0,1,.195-.655,8.355,8.355,0,0,0,.408-2.938c-.154-2.7-.532-5.784-.532-5.784a2.965,2.965,0,0,1,.389-1.9c.848-1.837.371-3.831-.528-6.759a19.614,19.614,0,0,1-.669-3.124v0l-4.207-3.681-1.132-.284-.236.747s-.1.535-1.012.306a3.348,3.348,0,0,1-.607-.212c-.274-.136-.441-.173-.123-1.171s.47-1.384.47-1.384a5.787,5.787,0,0,0-.582-.166l-.666,1.917a.5.5,0,0,1-.624.433A3.519,3.519,0,0,1,31,56.583s-.483-.121-.137-.973a14.369,14.369,0,0,0,.495-1.387s-.314-.084-.437-.124l-.686,1.874s-.218.486-.927.231a2.442,2.442,0,0,1-.828-.4s-.313-.032.2-1.4,2.912-7.924,3.154-8.464a11.04,11.04,0,0,1,1.207-1.967,4.383,4.383,0,0,1,.7-.728.375.375,0,0,1,.045-.036s.467-.408.633-.268c.124.1.231.19.172.526a2.574,2.574,0,0,1-.127.443c-.063.183-.156.408-.28.682a4.093,4.093,0,0,1,.545-.284c.049-.1.1-.195.15-.29.082-.147.167-.291.249-.427a8.894,8.894,0,0,1,.536-.764c-.153-.73.954-1.371,2.956-1.034a.965.965,0,0,1,.7-.177.384.384,0,0,1,.3.409,5.508,5.508,0,0,1,1.313.551c-.056-.78,1.3-1.42,3.639-.853,3.048.734,2.872,2.086,2.689,2.468s-.959.342-.959.342l-.216.588c.069.062.133.124.2.183q.115-.067.255-.169c.75-.568,1.179-.232,1.179-.232s.293.2.626.474a1.82,1.82,0,0,0,.42-.659.865.865,0,0,1-.584-.153.764.764,0,0,1-.347-.4,3.879,3.879,0,0,0-.262-.509,3.3,3.3,0,0,1-.675-1.981c-.591-.131-.722-.469-.68-.8a2.229,2.229,0,0,0-.075-.76c-.574-.159-.519-.624-.487-1.018a1.424,1.424,0,0,0-.079-.626.919.919,0,0,1-.319-.437,4.651,4.651,0,0,1,.059-1.837,4.861,4.861,0,0,1,.232-2.416c.236-.76.337-1.253.337-1.253.112-.757.549-.655.771-.757a2.9,2.9,0,0,0,1.21-.626,2.263,2.263,0,0,1,.992-.538l.278-.058c-.355-.735-.039-.705-.039-.705.173-.255-.117-.156-.117-.156s-.6.336-.934.11c-.2-.14.045-1.5,1.051-2.736.343-.424.538-.656.538-.656-.153-.182-.117-.9-.117-.9.187-1.913.68-2.225.68-2.225,1.671-1.236,2.435-1.048,2.435-1.048a4.441,4.441,0,0,1,2.911,1.514,5.321,5.321,0,0,1,.2,2.243.642.642,0,0,1,.355.737c-.143.493-.425,1.159-.425,1.159a.725.725,0,0,1-.025.98,1.1,1.1,0,0,1,.18,1.56,4.652,4.652,0,0,1,.614.536l.033.043a.215.215,0,0,1,0,.254,7.518,7.518,0,0,0,1.3.835c.79.359,1.443.888,1.313,1.25s-.176.349-.061.657a2.248,2.248,0,0,1,.868,2.251s.59,1.312.15,2.033a4.894,4.894,0,0,1-.17,2.321,2.983,2.983,0,0,0,.358.923c.52.977,2.4,2.977,2.506,3.8h0a.663.663,0,0,1,.26-.447c.257-.221.355-.062.355-.062s-.009.151.133.143c.274-.017.345-.363.477-.62a.4.4,0,0,1,.434-.186.279.279,0,0,1,0-.372c.274-.353.522-.336.5-.221a1.022,1.022,0,0,0-.027.212c.159.5.92.646.92.646s.133-.18-.035-.291a.9.9,0,0,1-.46-1c.159.045.195.019.327-.107.265-.247.274-.15.336.089a.9.9,0,0,0,.362.424.58.58,0,0,1,.213-.238c.141-.079.447-.332.088-.549a.191.191,0,0,1-.053-.327s.417-.372.451-.115c.049.352.284.391.284.391,0-.329-.087-.83-2.654-2.7a6.687,6.687,0,0,1-2.468-5.274c-.081-.937.371-1.016.708-.9a6.321,6.321,0,0,1,1.22,1.078,28.693,28.693,0,0,0,3.672,3.167c.569.278,1.566.947,1.566.947,1.711,1.3,1.69,2.353,1.69,2.353a2.142,2.142,0,0,0,.212-.5,2.585,2.585,0,0,1,.143-.451.98.98,0,0,1,.362.5.182.182,0,0,0,.133-.088.29.29,0,0,1,.169-.107,1.43,1.43,0,0,1,.177.753,5.178,5.178,0,0,1,.655-.1.607.607,0,0,0-.089-.424c-.2.105-.327-.079-.379-.327a.688.688,0,0,0-.231-.381.657.657,0,0,0-.336.283c-.062-.071-.027-.186-.115-.336a1.357,1.357,0,0,0-.239-.283s-.1.026-.238.212-.257.079-.257.079a4.344,4.344,0,0,0-2.637-2.141,6.47,6.47,0,0,1-.319-2.654c.123-1.677.744-3.1,1.416-3.1s.531,1.716,1.5,3.114a16.33,16.33,0,0,1,2.106,3.255A8.816,8.816,0,0,1,73.4,40.5a.619.619,0,0,1,.437-.405s-.006.173.272.311.234.281.033.438a.3.3,0,0,0-.1.306.581.581,0,0,1,.538-.1s-.186.252.232.4a1.365,1.365,0,0,0-.193.717,3.821,3.821,0,0,1,.578.125c.2.061.405.479.405.479s.1.179.3.51-.112.73-.185.8a3.834,3.834,0,0,0,.755.89c.531.477.757.77.783,1.114a2,2,0,0,1,.4,1.393c-.052.89.512,1.175.362,1.3-.076.063-.143-.033-.375.2,0,0-.118.18-.265-.079a2.739,2.739,0,0,1-.551-1.956s.027-.074-.026-.1c0,0-.359.072-.153,1.24,0,0,.826,1.5,1.214,2.429a6.185,6.185,0,0,1,.379,1.3l.358.059c.125.02.206.107.492.49a2.512,2.512,0,0,1,.444,1.407.984.984,0,0,1-.378.89s.039.107.092.272a4.085,4.085,0,0,1,1.3,2.222,2.668,2.668,0,0,1-.683,1.932,6.445,6.445,0,0,0-.61,1.148.914.914,0,0,1-.464.557,3.738,3.738,0,0,1-.83.187c-.477.052-.477.2-.663.371a1.756,1.756,0,0,1-1.964.186,2.063,2.063,0,0,1-1.313-2.124,1.6,1.6,0,0,0-.107-.49.552.552,0,0,1-.5.49c-.345.066-.73-.424-.73-.424a5.62,5.62,0,0,1-2.96.676C68.141,59.532,60.908,58.6,59.5,45.81c0,0-.133-.159-.239.081a18.62,18.62,0,0,0,.5,3.848,5.218,5.218,0,0,1-2.725,1.8,20.287,20.287,0,0,0-2.9.973s3.875-.143,5.892-1.912a16.887,16.887,0,0,0,.99,2.69,6.122,6.122,0,0,0,.789,3.411s.105-.017.159-.212c0,0-.363-.35-.381-2,0,0,2.017,3.114,4.069,4.3a22.689,22.689,0,0,0-1.008,3.4,4.611,4.611,0,0,1-1.469,2.46A7.977,7.977,0,0,0,62,66.5l-.017-.035a5.379,5.379,0,0,0,1.557-1.556,7.073,7.073,0,0,1,.813-1.061,8.2,8.2,0,0,0-.359,1.2,9.248,9.248,0,0,1-.172,1.541,7.714,7.714,0,0,0-.124,1.5,39.244,39.244,0,0,0,2.194,3.858A8.389,8.389,0,0,1,67,73.881a3.315,3.315,0,0,0-.849-.141c-.355.02-.283.212-.283.212s0-.1.584.053c.7.183.849.425.849.425,1.631,3.291.248,4.866-.46,6.158M47.621,36.348a1.143,1.143,0,0,0-.123-.979,3.066,3.066,0,0,1-.685-1.24s-.438.464.128,1.608c.323.662.679.611.679.611m11.715,5.125a1.631,1.631,0,0,1-.215-1,2.521,2.521,0,0,0,.009-.768,2.116,2.116,0,0,0-1.4.653,1.236,1.236,0,0,0,0,1.375,2.553,2.553,0,0,1,1.3.742,2.626,2.626,0,0,0,1.2.705.39.39,0,0,1,.144.6,1.068,1.068,0,0,1-.629,1.262,2.9,2.9,0,0,0,1.492.92,5.684,5.684,0,0,1,1.087-.519A17.3,17.3,0,0,0,60.978,43.5a13.882,13.882,0,0,1-1.642-2.027M54.9,30.329a.219.219,0,0,0-.012.042l-.016-.012a.761.761,0,0,0-.014.424,9.306,9.306,0,0,1,.378,3.73,4.472,4.472,0,0,1,1.3-.866.548.548,0,0,1,.187.058c.089.042-.012.164-.012.164a17.667,17.667,0,0,0-1.7,2.356,7.418,7.418,0,0,1,1.264-.173c.4.01.3-.709.3-.709a.921.921,0,0,1,.215-.584c.151-.128.209.042.209.042a2.755,2.755,0,0,0-.036,1.332,9.05,9.05,0,0,1,.533,2.331s.15-.555.409-.5c0,0-.629-1.145-.242-1.737a3.339,3.339,0,0,1-.017-2.186c.218-.554.316-.554.316-.554a.294.294,0,0,1,.05.36c-.123.2-.222.569.212,1.2s.557,1.263.023,1.773a1.37,1.37,0,0,0-.023.982,2.03,2.03,0,0,1,.952-.153s.206-.16.085-.569a2.974,2.974,0,0,1-.1-1.373c.1-.363.125-.758-.682-1.551,0,0,.193-.16-.023-.754a1.112,1.112,0,0,0-.806-.77s-.235.422-.36.208a1.426,1.426,0,0,0-.817-.58c-.272.136-.11.608-.11.608a.341.341,0,0,1-.173.48,1.721,1.721,0,0,1-.274-1.25,1.123,1.123,0,0,0-.007-.185A2.553,2.553,0,0,0,54.9,30.329m-.306,9.228a1.8,1.8,0,0,0-.169.575s.115.352.989.112a2.743,2.743,0,0,0,1.6-2.155,5.494,5.494,0,0,0-.391-1.469,5.249,5.249,0,0,1-1.974.425,11.324,11.324,0,0,0-3.062.558,4.59,4.59,0,0,0-.1,1.935c.153.839.339,1.612,1.956.8a2.744,2.744,0,0,0,.839-.91s.349-.094.313.13M50.683,32.8a3.341,3.341,0,0,0-.4,1.065s-.049.052.388.451,1.6,1.135,1.831,1.417c0,0-2.279-3.627-1.561-5.486a2.171,2.171,0,0,0-.794,1.806s-.037.187.535.745m5.529,9.414a1.985,1.985,0,0,1,.82-.376s-.091-.056-.111-.463.02-.7-.114-.894a2.869,2.869,0,0,0-.6,1.733M50.018,25.651a5.006,5.006,0,0,1,2.875-1.1,5.18,5.18,0,0,1,2.424.965.661.661,0,0,0,.032-.215s-.908-.561-1.241-.717c-.3-.134-.776-.288-.9-.513a.417.417,0,0,1,.249-.055c.156.012.187-.045.187-.045a9.3,9.3,0,0,1,1.648.871.594.594,0,0,0,0-.157s-.288-.578-2.1-1.267a.223.223,0,0,1,.27-.153.156.156,0,0,0,.179-.071,2.494,2.494,0,0,0,.476.189,4.192,4.192,0,0,1,.626.257,4.277,4.277,0,0,0-1.558-.881c-.841-.221-.843-.244-1.768.221a3.8,3.8,0,0,0-.877.567,4.555,4.555,0,0,1,.822-.281,1.587,1.587,0,0,1,.545.046.141.141,0,0,1-.045.2,2.747,2.747,0,0,0-1.737.9l.01.068a4.4,4.4,0,0,1,1.455-.555c.264.022.283.2.283.2A6.9,6.9,0,0,0,50.027,25.3a.444.444,0,0,0-.009.349m-.225,1.482a1.936,1.936,0,0,0,.471.956.153.153,0,0,0,.264-.032s.052.221.209.68a4.119,4.119,0,0,0,1.308,1.693l-.183.244a.78.78,0,0,0-.274.422,1.36,1.36,0,0,0,.855,1.7c.6.229.474.382.474.382-.14.159-.918.123-.918.123a12.286,12.286,0,0,0,1.225,3.091c.626-.069,1.067-.081,1.067-.081.443-.779.316-4.031.306-4.255a.655.655,0,0,1-.411.6c-.261.123-.469.1-.412.659a.759.759,0,0,1-.186.653,1.864,1.864,0,0,0-.349-.577c-.309-.4-.337-.858-.14-.826.14.025.277-.013.4-.232s-.213-.424-.382-.4-.659.228-.487-.242a.922.922,0,0,0-.216-.888.942.942,0,0,1-.082-.193l-.105-.107.043.014.164.055c.744.255,1.674-.529,2.193-1.794.013-.032.281-.77.281-.77.19.417.427-.146.427-.146.679-1.286.137-1.081.137-1.081-.288.019-.52.858-.52.858s-.147.03-.074-.206a.765.765,0,0,1,.013-.68c.183-.409-.1-.531-.235-.531s-.518-.016-.456-.59c0,0-.212-.03-.567.265a.655.655,0,0,1-1.106-.4s-.662,1.034-1.436.607c-.526-.3-.542-.091-.542-.091a1.139,1.139,0,0,0-.076.722,1.3,1.3,0,0,1,.016.653l-.16-.281c-.137-.238-.61-.786-.533.017m-.47,1.554c.5,1.084.915.089.915.089a1.666,1.666,0,0,1-.682-1.488A4.749,4.749,0,0,0,48.445,29.5a5.908,5.908,0,0,0,.685-.31ZM46.531,38.28c.157.448.871.356.871.356a1.316,1.316,0,0,1-.254-.427c-.084-.252.213-.809.213-.809-.213-.174-.108-.535-.108-.535s.1-.133.431.153c.247.208.359.05.359.05a1.726,1.726,0,0,0-.014-1.416c0-.185.215-.228.215-.228a1.971,1.971,0,0,1,.8,1.74.337.337,0,0,0,.225-.12,1.2,1.2,0,0,1,.124-.515c.163-.277.221-.023.221-.023.83,1.7-.081,2.193-.081,2.193a.858.858,0,0,0,.614-.133.376.376,0,0,0,0-.509,1.807,1.807,0,0,0-.212-1.773,3.065,3.065,0,0,1-.7-1.3c-.5-1.5.03-1.858.03-1.858.249,1.558.691,1.4,1.074,2.4a3.981,3.981,0,0,1,.317,1.736c.379,1.054-.035,1.517-.035,1.517a3.566,3.566,0,0,0,.133.928,1.3,1.3,0,0,1,0,.774c.248-.048.366-.447.366-.447s-.036-1.006-.085-1.469-.1-1.636.353-1.8a6.759,6.759,0,0,1,.755-.213,16.658,16.658,0,0,1-2.167-2.02c-.3-.3.063-.711.183-.957a.772.772,0,0,0,.066-.447c-.91-.76-.843-.962-.843-.962a3.537,3.537,0,0,1,.329-1.237,5.658,5.658,0,0,0-1.661.732,6.653,6.653,0,0,1-.992.383c-.088.052.013.176.013.176,1.212.559.509,1.883.509,1.883a.467.467,0,0,1-.353-.169c-.288-.368-.379-.588-.753-.5s-.36,1.384-.274,2a1.939,1.939,0,0,1-.121,1.047c.26.1.26.542.248,1.015a.612.612,0,0,0,.271.6.146.146,0,0,0-.074.174m.643,2.565a5.64,5.64,0,0,1,1.675-.557c.754-.087,1.25-.332,1.364-.585s-.089-.742-.089-.742a1.172,1.172,0,0,1-.692.1,1.968,1.968,0,0,1-.907.359c-.356-.026-.2.185-.2.185s.247.5.159.582-.692.046-.941.248-.519.309-.614-.026-.291-.506-.389-.482a1.807,1.807,0,0,1,.19.719c-.045.248.137.319.441.2M45.908,45.79s-.541-.232-.748-.063-.176.4.144.712c.388.373.64.016.6-.231l.525-.3.274-.151.02-.013.293-.163a.434.434,0,0,1,.523.022c.056.046.147.117.251.2l0,0c.294.235.683.549.683.549h-.009l.009.007-.212,0-.471.3a.316.316,0,0,1,.11.161s.614-.353.709-.418c.061-.04.146-.094.153-.177a.28.28,0,0,0-.1-.187c-.2-.2-.992-.8-.992-.8a.648.648,0,0,0-.8-.012c-.14.088-.284.172-.414.248-.017.012-.035.022-.053.032q-.134.082-.247.143l-.251.14m.342,2.666s-.144.518-.356,1.272l.265.078.394-1.41a.976.976,0,0,0,.663-.607.23.23,0,0,0,.009-.049.361.361,0,0,0,.007-.045v-.042c0-.029,0-.059,0-.094l0-.046a.836.836,0,0,0-.013-.114.244.244,0,0,0-.01-.055c-.007-.043-.013-.088-.025-.134-.006-.019-.009-.036-.014-.056-.016-.056-.037-.115-.055-.176a.133.133,0,0,1-.012-.029,2.743,2.743,0,0,0-.414-.742l-.434.261s-.115.812-.874.363-.7-.956-.506-1.221.668-.121.668-.121a.547.547,0,0,0,.4-.022,6.683,6.683,0,0,0-2.2-1.052,5.677,5.677,0,0,0-1.9-.229,4.552,4.552,0,0,0-1.178.212c-.081.026-.15.059-.223.088l-.026.009c-.1.043-.2.088-.291.136-.043.023-.091.046-.131.071s-.066.04-.1.061c-.056.037-.111.072-.161.112a1.711,1.711,0,0,0-.143.115,1.933,1.933,0,0,0-.27.278,1.4,1.4,0,0,0-.087.137.872.872,0,0,0-.056.1.681.681,0,0,0-.042.144.454.454,0,0,0,0,.21.389.389,0,0,0,.218.261l.023.006c.026.014.076.062.061.219a1.315,1.315,0,0,1-.058.244l-.1.332-.128.431-.11.358.13.039c.039-.121.075-.236.114-.34.052-.167.1-.31.146-.425.019-.05.039-.1.05-.137a.867.867,0,0,1,.146-.245c.161-.169.267.1.267.1s-.013.035-.029.092c-.022.076-.059.192-.1.343-.035.12-.078.261-.125.42-.027.1-.061.2-.091.3l.254.076.079-.267.12-.405.1-.327.023-.088s.071-.114.483-.1a1.039,1.039,0,0,1,.141.012.649.649,0,0,1,.44.177s.16.235-.012.774c-.02.066-.066.215-.127.422a1.425,1.425,0,0,0-.045.156l.078.025.154.045.5.149,3.5,1.039v-.007l.284.085c.133-.456.245-.82.324-1.025.226-.585.408-.144.408-.144l0,.006Zm-4.381-4.677A6.537,6.537,0,0,1,45.7,44.8l.239-.691a4.737,4.737,0,0,0-3.953-.966l-.124.556-.017.076h.027m4.82,6.184.2.058.411-1.465s1.468-.633-.094-2.32c.11-.091.228-.182.345-.267-.281-.177-.443-.009-.443-.009l-.1.061c.075.075.138.146.2.215-.009.009-.02.017-.03.029-.059-.078-.115-.153-.185-.235l0,0c.068.082.124.157.183.234h0c.019.022.027.042.043.063.045.059.081.111.12.169s.062.1.091.138c.04.068.076.13.107.19.013.03.032.061.046.091.032.069.059.137.085.2a.4.4,0,0,1,.013.045,1.8,1.8,0,0,1,.061.213v.007a1.02,1.02,0,0,1-.653,1.178Zm-5.112-7.184a5.166,5.166,0,0,1,4.778,1.246s1.253-.125-.153-1.12a5.911,5.911,0,0,0-4.024-.934c-.773.124-.815.675-.6.809m-2.219.33a4.068,4.068,0,0,1,1.347.83c.333-.092.565-.131.565-.131l.052-.238a2.169,2.169,0,0,0-.555-.515,4.91,4.91,0,0,0-1.21-.608.034.034,0,0,0-.007.02l-.189.637Zm-.215.764.91.241a.658.658,0,0,1,.1.014c.056-.023.11-.043.166-.062a3.765,3.765,0,0,0-1.076-.552Zm-.081.278-.029.1-.029.1-.056.2.285.062c.076-.056.154-.108.238-.159.01,0,.017-.012.029-.016a2.3,2.3,0,0,1,.21-.117Zm-2.493-1.919a.479.479,0,0,1,.264.518l-.026.094a6.238,6.238,0,0,1,.832-.045,5.155,5.155,0,0,1,.562-.665,4.985,4.985,0,0,0-1.341.016,1.345,1.345,0,0,0-.291.082m-.037,1.674s.212-.012.542,0c.016-.037.147-.36.3-.666-.216,0-.441.016-.683.045l-.059.187Zm-.172.407-.575,1.808c.157.01.333.027.52.052l.639-1.874a4.851,4.851,0,0,0-.584.014m-2.331,1.794c.088-.291.212-.675.375-1.077-.493.4-.647.848-.375,1.077m6.25,11.47-2.128-.509,2.158,1.746c-.03-.412-.03-1.237-.03-1.237m5.268,6.3-1.893-1.737a.348.348,0,0,0,.221-.115l-2.69-2.281c-.108.208-.309.441-.409.633l1.38,1.2c.166.146.316.265.458.375l.65.556c1.835,1.6,2.284,1.367,2.284,1.367m4.993-9.673s-1.691,6.051-1.913,6.211-1.422-.306-1.422-.306-.166.025-.186-.12c-.043-.01-.085-.023-.121-.032a.493.493,0,0,1-.2-.11.459.459,0,0,0,.27.567c.5.185,1.3.382,1.3.382s.458.208.66-.568,1.616-6.025,1.616-6.025m.43-5.458s-.365-.111-.639-.17-.347.226-.347.226l-1.864,7.113c-.183.353-.371.2-.371.2v-.007h0l.151-.649a.189.189,0,0,0-.141,0s-.124.493-.215.819-.15.313-.15.313l-2.23-.578-.185-.048-.623-.16-.427-.111-1.067-.277-2.971-.773-.5-.128-.029-.007-.231-.061-.285-.075-1.041-.27-.591-.153-.272-.071-.206-.053-1.016-.264c-.215-.063-.117-.189-.1-.245L36,52.046c.019-.061.036-.123.058-.183.009-.035.02-.068.029-.1.017-.062.037-.124.056-.186.388-1.308.855-2.87.855-2.87l1.113.333.2.059.283.085.133.036.368.112.265.079.735.219.363.107.1.029.159.048.51.151,3.747,1.12v-.009l.14.042.372.111.261.078.526.157.192.056,2.082.621c.363.1.376-.03.376-.03l.169-.724c.04-.21-.082-.244-.082-.244l-2.252-.653-.192-.059-.528-.153-.267-.078-.378-.108L41.5,48.962l-.513-.15-.15-.042-.114-.035-.332-.1-.75-.219-.26-.075-.375-.108-.127-.037-.3-.087-.2-.058-.982-.285c-.385-.108-.212-.368-.212-.368.058.069.195-.007.195-.007l.164-.518.143-.45.411-1.287.112-.35.036-.114.009-.027.045-.138.134-.421.02-.065.087-.272.128-.4.13-.415.048-.15a3.46,3.46,0,0,0,.172-.506c.065-.275.042-.49-.362-.136l-.046.045a3.925,3.925,0,0,0-.535.63c-.1.143-.195.287-.274.424a6.961,6.961,0,0,0-.353.686l-.01.027s-.049.141-.12.358c-.169.516-.477,1.452-.631,1.906-.037.107-.063.186-.079.228a.373.373,0,0,1-.2.239.243.243,0,0,1-.13.012l-.923.079-.241.022a.329.329,0,0,1-.105,0c-.134-.032-.026-.173-.026-.173s.01-.039.032-.1c.027-.089.074-.239.131-.424.138-.443.339-1.089.52-1.667l0-.01c.007-.026.016-.053.025-.079.042-.134.082-.262.12-.385.078-.242.14-.447.187-.593.009-.029.019-.061.027-.084.2-.657-.117-.265-.117-.265a1.561,1.561,0,0,0-.12.12,3.785,3.785,0,0,0-.454.584c-.1.148-.183.3-.261.445l-.027.049c-.1.2-.187.388-.257.546-.115.274-.179.464-.179.464L34.07,46.9l-.017,0-.81.069-.75.066c-.251-.009-.169-.265-.169-.265l.371-.95c.153.193.278.2.278.2l.51-1.289.234-.587.148-.378.085-.21c.027-.161-.1-.087-.1-.087q-.121.117-.238.242c-.026.027-.05.056-.076.084-.12.136-.236.275-.342.418a8.866,8.866,0,0,0-1.1,1.971l-3.3,8.947c-.2.456.128.516.128.516l.33.133c.329.114.414-.055.414-.055l.657-1.893a.539.539,0,0,0-.3.26l-.128.353c-.215.059-.239-.084-.239-.084l.588-1.5c.235.045.355-.065.464-.056.085.012.742.144,1.054.206l.16.033-.045.138c-.134.435-.548,1.791-.735,2.353-.222.672-.085.58-.085.58l.239.1c.437.213.428-.052.428-.052.28-.679.656-1.913.656-1.913l-.34.443c-.159.042-.18-.025-.18-.025a11.231,11.231,0,0,1,.376-1.123c.056-.154.1-.278.125-.336l.007-.02.009-.019a.394.394,0,0,0,.281.007.36.36,0,0,0,.141-.094l.209.027c.223.027.587.076.875.125a.685.685,0,0,1,.309.114.223.223,0,0,1,.1.193s-.082.234-.195.564c-.02.056-.039.115-.059.174s-.039.117-.062.177c-.013.04-.025.079-.039.118-.216.633-.469,1.373-.559,1.642-.182.51.065.411.232.456s.451.074.631.12.208-.223.208-.223c.11-.334.417-1.257.555-1.668a.964.964,0,0,1,.035-.1c.02-.063.035-.1.035-.1a.607.607,0,0,1,.071-.048c.339-.236.45.063.45.063l-.019.068-.042.15-.029.111-.13.469,4.276,1.08,0-.006,7.656,1.936v.006h0l-.141.531a.5.5,0,0,0-.059.222.2.2,0,0,0,.17.193l.434.112c.569.156.617.059.618.025v-.013L51.2,49.03c.036-.323-.228-.283-.228-.283m-12.2-2.016.068-.223h0a.647.647,0,0,1-.35-.326l-.12.422c.141.042.275.084.4.128m-.492.31a.242.242,0,0,0-.035-.009l-.112.4.4.12.114-.4c-.125-.046-.257-.087-.369-.12m1.657,4.8c-.334,1.138-.608,2.062-.608,2.062a.224.224,0,0,1-.063.086.2.2,0,0,1-.053.035l.04.012.249.068.5.137.892.241.006-.006,3.131.846c.078-.314.4-1.623.763-3.02a22.865,22.865,0,0,0-3.864-1.325c-.17-.042-.345-.079-.52-.117l-.174-.042c-.055.186-.108.369-.163.549l.185.037c.167.032.34.068.522.108a13.993,13.993,0,0,1,2.713.9L43.5,52.4a9.145,9.145,0,0,1,1.063.565.309.309,0,0,1,0,.075.126.126,0,0,1-.058.11.153.153,0,0,1-.094,0A19.965,19.965,0,0,0,40.7,51.8c-.167-.04-.339-.081-.516-.117L40,51.646l-.071-.013c-.12-.023-.236-.048-.36-.068-.262-.046-.535-.084-.81-.115-.1-.012-.192-.022-.288-.032l-.059.2-.2.691-.05.174-.033.114-.05.179-.249.871.31.084a.5.5,0,0,1,.022-.267l.172-.577.05-.177.032-.1.049-.172.234-.784c.281.03.552.068.817.111.12.02.241.045.359.063.022,0,.045.01.065.013m-1.1-.656L39,50.6c-.094-.014-.19-.03-.288-.042-.025.091-.053.182-.082.274l-.091.32.29.03M44.3,55.395l.262.071c.045-.112.085-.244.128-.394l.7-2.5c-.071-.035-.156-.074-.249-.117-.363,1.3-.705,2.5-.838,2.938m.792.213.2.053,1.054-3.723-.195-.059Zm11.126-6.332a13.021,13.021,0,0,0-2.548.838c-.936.411-1.352.037-1.352.037l-.454,1.465s.075.448,1.169-.255a33.6,33.6,0,0,1,3.185-2.085m3.851-4.99a.683.683,0,0,0,.118-.463,1.428,1.428,0,0,1-1.093.231,1.258,1.258,0,0,1-.731-.712.773.773,0,0,1,.528.085c.268.143.5.4.766.358a.478.478,0,0,0,.366-.28,2.487,2.487,0,0,1-.748-.479,1.907,1.907,0,0,0-1.478-.665,2.147,2.147,0,0,0-1.491.3,3.392,3.392,0,0,1-1.331.062c-.363-.016-2.2-.349-3.366-.512a10.678,10.678,0,0,0-1.534-.137.3.3,0,0,1-.322-.311c-.017-.28-.017-.5-.05-1.112a5.431,5.431,0,0,0-1.2.414,4.057,4.057,0,0,1-.96.383s-.234.352.032,1.212a5.66,5.66,0,0,0,.415,1.028,1.034,1.034,0,0,0,.828.548s1.251.356,5.529.1a5.1,5.1,0,0,1,1.243-.03,7.584,7.584,0,0,0,1.644.959,4.036,4.036,0,0,0,1.146.085c.212-.035.565.169.665-.4a1.7,1.7,0,0,0,1.024-.663M64.82,39.2a10.391,10.391,0,0,0,1.868,2.037,2.781,2.781,0,0,1,1.3,2.06.876.876,0,0,0,.447-1c-.206-.59-.989-1.037-1.832-1.615-.578-.4-1.783-1.482-1.783-1.482m2.723,3.785s-2,.711-1.168,2.458a.52.52,0,0,1,.673.2s-.662-.2-.783.35.193.722.422.735c.172.009.59-.241.469-.856,0,0,.134-.216.254.182a10.05,10.05,0,0,1,7.073-2.8,2.924,2.924,0,0,1,.735.121c.252.1.156-.134.156-.134a1.762,1.762,0,0,0-.3-.7A8.123,8.123,0,0,0,70.7,43.1a12.64,12.64,0,0,0-3.578,2.121,1.137,1.137,0,0,1,.156-1.675c.47-.493.265-.565.265-.565m-.036,10.783s.072-.023-.1-.228-2.615-3.241-1-6.675a.458.458,0,0,1-.277-.229,5.766,5.766,0,0,0,1.374,7.132m-.291-6.2a11.484,11.484,0,0,0,3.893,7.769,4.681,4.681,0,0,0-.443-.885c-.319-.513-3.309-5.946-3.45-6.884m1.29.453c0,.043-.009.141.115.159a1.4,1.4,0,0,1,.257.071,3.342,3.342,0,0,0,.46.832,1.63,1.63,0,0,0,1.407.5c.806-.045,1.256.531,1.84.708.557.169.682-.079.532-.451a4.022,4.022,0,0,0-1.762-1.982,5.243,5.243,0,0,0-2.654.045c-.105.009-.195.071-.195.115m3.371-.62s2.894,2.124,3.451,4.84c0,0,.274-.2.381-.284s.1-.291-.134-.77-1.822-3.343-3.317-3.883c0,0-.274-.141-.381.1M79.07,54.26a.56.56,0,0,0,.169-.655,4.856,4.856,0,0,0-.637-1.3c-.088-.089-.19-.183-.858-.115a4.95,4.95,0,0,0-4.123,2.522,6.531,6.531,0,0,0-.76,2.663s.017.229.689.565c0,0,.019.107.2-.8a4.35,4.35,0,0,1,2.575-3.512c1.929-.787,2.663-.229,2.716-.186s.124.293-.071.363a.291.291,0,0,0-.115.036s.15.283.212.415m-8.421,2.194c-.633-.365-2.425-1.858-2.425-1.858a9.408,9.408,0,0,0-1.858,2.672,12.5,12.5,0,0,1-5.385-7.855,24.078,24.078,0,0,1,2.986-2.726,12.28,12.28,0,0,0,1.719-1.626c-.02-.066-.053-.059-.053-.059-.265.225-1.306,1-2.308,1.739a31.786,31.786,0,0,0-2.549,2.229,17.612,17.612,0,0,1-.676-2.958.63.63,0,0,0-.252-.147c.61,7.3,4.312,11,6.966,12.394a7.045,7.045,0,0,0,5.428.28.912.912,0,0,1-.438-.81A2.681,2.681,0,0,1,72,57.1c-.133-.195-.646-.239-1.352-.646m1.812,1.061a.553.553,0,0,0,.027.761,10.129,10.129,0,0,0,.8.672.234.234,0,0,0,.177-.231.85.85,0,0,1,.1-.336,3.052,3.052,0,0,1-1.1-.866m5.7-3.848s-.336-.2-1.4.291c0,0,.433,1.407.477,1.788s-.026.46-.133.539a11.391,11.391,0,0,0-.911-2.043s-1.557.2-2.176,3.423a2.262,2.262,0,0,0,.433.744c.284.291.284.433.265.61a3.933,3.933,0,0,0,.231.532c.079.114-.053.317-.1.345,0,0-.185.071-.4-.62a1.483,1.483,0,0,1-.105.3c-.081.141-.053.548.441,1.1a1.469,1.469,0,0,0,2.088.319,1.885,1.885,0,0,1-1.1-.629.111.111,0,0,1,.069-.124s.081-.009.611.293A2.53,2.53,0,0,0,78.8,60.32c.345-.46.487-1.132.717-1.424s1.168-.982-.026-3.167c0,0,.31,1.212-.141,1.576,0,0-.186.053-.151-.169s.231-1.38-1.035-3.467m-17.348,16s1.893,1.221,2.83,1.912a5.6,5.6,0,0,0-2.388-2.265.378.378,0,0,0-.408-.019c-.229.125-.035.372-.035.372m-8.245,6.547a.93.93,0,0,0-.408-1.078c-.637-.355-1.078.353-1.078.353a1.231,1.231,0,0,1,1.486.725m-2.744,3.593a18.679,18.679,0,0,1-.176,5.467s1.061-1.664.565-5.133c0,0-.088-.689-.389-.334M42.108,75.35a23.263,23.263,0,0,1,.107,3.645,6.706,6.706,0,0,0,.3-3.911s-.056-.332-.3-.264c-.195.052-.107.531-.107.531M60.543,59.028a.973.973,0,0,0,.3-.617,8.873,8.873,0,0,1-.828-3.77s0-.123-.094-.123a7.845,7.845,0,0,0,.617,4.51m-.428,1.411a.994.994,0,0,0,.252-.668A10.055,10.055,0,0,1,59.231,55.8s-.01-.134-.107-.128a8.912,8.912,0,0,0,.99,4.763m-.346,1.623a1.063,1.063,0,0,0,.183-.7A11.709,11.709,0,0,1,58.5,57.3s-.023-.137-.117-.13a10.272,10.272,0,0,0,1.381,4.89m-.28,1.511a.99.99,0,0,0,.14-.706A11.838,11.838,0,0,1,57.907,58.9s-.033-.134-.123-.12a10.24,10.24,0,0,0,1.7,4.791m4.521-12.9s.042-.343-.087-.368a5.219,5.219,0,0,0,.11,2.137.586.586,0,0,0,.249-.79,2.647,2.647,0,0,1-.272-.979m-.92.59s.055-.482-.124-.515a7.272,7.272,0,0,0,.157,3.023.815.815,0,0,0,.349-1.11,3.889,3.889,0,0,1-.382-1.4m-2.014,6.53a.973.973,0,0,0,.3-.617,8.864,8.864,0,0,1-.826-3.77s0-.123-.1-.123a7.858,7.858,0,0,0,.617,4.51" transform="translate(12.54 9.817)" fill="#004f9a"></path><path id="Tracé_3679" data-name="Tracé 3679" d="M54.937,51.163s-.151.061-.311-.209a1.776,1.776,0,0,0-.577-.487.67.67,0,0,0,.236.705c.556.431.652-.009.652-.009" transform="translate(23.865 22.292)" fill="#004f9a"></path><path id="Tracé_3680" data-name="Tracé 3680" d="M42.926,37.008c-.515-.085-.581-.382-.581-.382a.217.217,0,0,0-.216-.167.594.594,0,0,0,.133.711c.352.285,1.063.467,1.263.052,0,0-.084-.131-.6-.213" transform="translate(18.58 16.104)" fill="#004f9a"></path><path id="Tracé_3681" data-name="Tracé 3681" d="M45.991,31.173a.4.4,0,0,0,.394-.33.286.286,0,0,0-.284-.34.409.409,0,0,0-.4.33.287.287,0,0,0,.29.34" transform="translate(20.186 13.473)" fill="#004f9a"></path><path id="Tracé_3682" data-name="Tracé 3682" d="M45.389,26.877a.875.875,0,0,0,.4-.169s-.035-.166-.238-.066a.584.584,0,0,1-.616-.027s.144.334.453.262" transform="translate(19.849 11.754)" fill="#004f9a"></path><path id="Tracé_3683" data-name="Tracé 3683" d="M46.936,26.1a2.306,2.306,0,0,0,.451-.627,2.47,2.47,0,0,0-.451.627" transform="translate(20.733 11.252)" fill="#004f9a"></path><path id="Tracé_3684" data-name="Tracé 3684" d="M47.144,25.9c-.157.009-.248.261-.248.261.177.114.248-.261.248-.261" transform="translate(20.715 11.442)" fill="#004f9a"></path><path id="Tracé_3685" data-name="Tracé 3685" d="M43.31,25.474a2.349,2.349,0,0,0,.461.627,2.56,2.56,0,0,0-.461-.627" transform="translate(19.131 11.252)" fill="#004f9a"></path><path id="Tracé_3686" data-name="Tracé 3686" d="M43.493,25.9s.074.375.255.261c0,0-.094-.252-.255-.261" transform="translate(19.212 11.442)" fill="#004f9a"></path><path id="Tracé_3687" data-name="Tracé 3687" d="M46.118,27.124c-.114-.009-.239-.055-.352-.055a.553.553,0,0,0-.225.055c-.065.023-.091,0-.179-.045s-.189,0-.379.045a.617.617,0,0,1-.371-.045c-.033.063.066.131.212.187a.531.531,0,0,0,.495.405,1.066,1.066,0,0,0,.569-.023.614.614,0,0,0,.378-.376c.117-.036.2-.078.206-.1.019-.071-.249-.035-.355-.045m-.339.389c-.075,0-.112-.059-.137-.115.071-.007.15-.019.223-.029.013.066.009.144-.087.144" transform="translate(19.704 11.954)" fill="#004f9a"></path><path id="Tracé_3688" data-name="Tracé 3688" d="M45.286,25.9l.052-.068a.106.106,0,0,0,.007-.146,1,1,0,0,0-.787-.311c-.533.017-.64.244-.64.244a.1.1,0,0,0-.007.076c-.016.019.017.11.048.11.066.012.084.052.334-.052v.029a.268.268,0,0,0,.3.212.259.259,0,0,0,.254-.26.179.179,0,0,0-.009-.053,1.312,1.312,0,0,1,.451.219m-.83-.107a.07.07,0,0,1-.071-.066.071.071,0,1,1,.141,0,.07.07,0,0,1-.071.066" transform="translate(19.394 11.209)" fill="#004f9a"></path><path id="Tracé_3689" data-name="Tracé 3689" d="M43.774,25.41a.829.829,0,0,1,.666-.284,8.622,8.622,0,0,1,1.016.3l.078-.035a.207.207,0,0,0-.1-.147A1.927,1.927,0,0,0,44.407,25a.744.744,0,0,0-.666.382c-.023.065-.007.076.033.023" transform="translate(19.317 11.042)" fill="#004f9a"></path><path id="Tracé_3690" data-name="Tracé 3690" d="M46.307,25.379a.971.971,0,0,0-.787.311c-.045.055-.01.063.007.107l.053.11a1.311,1.311,0,0,1,.347-.189c0,.009-.007.014-.007.022a.262.262,0,0,0,.26.254.254.254,0,0,0,.293-.209.143.143,0,0,0-.006-.066.6.6,0,0,0,.108.036c.252.105.183.036.252.027A.122.122,0,0,0,46.9,25.7c.02-.006.014-.056,0-.11,0,0-.056-.2-.59-.215m-.247.414a.065.065,0,0,1-.068-.066.066.066,0,0,1,.068-.071.071.071,0,0,1,.071.071.07.07,0,0,1-.071.066" transform="translate(20.097 11.21)" fill="#004f9a"></path><path id="Tracé_3691" data-name="Tracé 3691" d="M46.53,25.127a.816.816,0,0,1,.663.287c.046.053.058.043.04-.022a.741.741,0,0,0-.668-.386,1.893,1.893,0,0,0-1.022.234.219.219,0,0,0-.11.147l.079.033a9.445,9.445,0,0,1,1.016-.293" transform="translate(20.069 11.042)" fill="#004f9a"></path><path id="Tracé_3692" data-name="Tracé 3692" d="M61.4,51.988a5.773,5.773,0,0,1-1.42.441,3.644,3.644,0,0,1-1.775-.509c-.061-.241-.151-.268-.272-.231a1.443,1.443,0,0,0-.326.225s-.6-.835-1.073-1.442a11.146,11.146,0,0,0-2.024-1.766,2.444,2.444,0,0,0-.12.324,11.278,11.278,0,0,0,1.517,1.6c.383.353,1.361,1.479,1.361,1.479-1.166.878-3.356.2-3.356.2a2.28,2.28,0,0,0-.44,1.234c-.045.757-.136,1.744-.136,1.744a5.29,5.29,0,0,0,1.671.578c.47.1.575-.463.575-.463,5.138,2.219,6.354-2.406,6.3-3.051s-.48-.359-.48-.359m-3.694.451a2.75,2.75,0,0,1-2.86.735c-.864-.221-.457-.265-.457-.265a4.068,4.068,0,0,0,3.185-.574s.172-.111.133.1m3.379.618a1.17,1.17,0,0,1-1.133.358,6.434,6.434,0,0,1-1.071-.293c-.189-.058-.208-.108-.111-.173a5.144,5.144,0,0,0,1.752.032c.484-.187.621-.087.564.076" transform="translate(23.562 21.515)" fill="#004f9a"></path><path id="Tracé_3693" data-name="Tracé 3693" d="M38.423,37.25l.1-.493a3.89,3.89,0,0,0-.512,0l-.121.515a1.481,1.481,0,0,1,.538-.022" transform="translate(16.735 16.232)" fill="#004f9a"></path><path id="Tracé_3694" data-name="Tracé 3694" d="M36.311,39.174a.322.322,0,0,0,.157-.161c.009-.026.02-.052.029-.085a.384.384,0,0,1,.1-.154,1.217,1.217,0,0,1,.1-.1c.042-.037.088-.079.14-.121s.13-.1.2-.151a.618.618,0,0,1,.088-.058.14.14,0,0,1,.027-.022c.085-.055.179-.111.277-.167a.269.269,0,0,0,.045-.025l.087-.048a3.829,3.829,0,0,1,1.974-.5s-.249-.04-.409-.058c0,0-.278,0-.67.039a5.538,5.538,0,0,0-1.058.209c-.04.013-.082.026-.118.039-.088.032-.173.065-.257.1-.043.017-.089.036-.13.056s-.074.042-.11.061l-.037.02c-.062.036-.118.072-.176.111a2.022,2.022,0,0,0-.177.138,1.475,1.475,0,0,0-.226.249,1.306,1.306,0,0,0-.2.376s-.006.019-.012.045a.227.227,0,0,0,0,.087.16.16,0,0,0,.079.114.3.3,0,0,0,.154.035.33.33,0,0,0,.124-.03" transform="translate(15.878 16.575)" fill="#004f9a"></path><path id="Tracé_3695" data-name="Tracé 3695" d="M57.092,40.169a3.323,3.323,0,0,1,2.415.875s.1.1.053.143-.141.052-.274-.133a2.345,2.345,0,0,0-.637-.143.565.565,0,0,1-.708.363.6.6,0,0,1-.5-.753.4.4,0,0,0-.31-.079s-.16-.009-.15-.159c.009-.133.115-.115.115-.115m.82.546a.172.172,0,0,0,.334.043c.02-.059.025-.149-.032-.166a.236.236,0,0,0-.3.123" transform="translate(25.168 17.741)" fill="#004f9a"></path><path id="Tracé_3696" data-name="Tracé 3696" d="M61.834,45.739s-.258.372-.451.61a1.046,1.046,0,0,0-.053,1.4c.372.487.293.575.293.575s.5.163.6-.46a1.267,1.267,0,0,0-.239-1.009c-.141-.274-.337-.557-.062-.946,0,0,.035-.089-.088-.169" transform="translate(26.982 20.204)" fill="#004f9a"></path><path id="Tracé_3697" data-name="Tracé 3697" d="M61.719,45.15s.131.316-.629,1.522c-.5.787.363,1.3.4,1.662a1.874,1.874,0,0,1,.027.541.174.174,0,0,1-.31.035.3.3,0,0,1-.026-.239,4.312,4.312,0,0,0-.451-.495,1.2,1.2,0,0,1-.231-1.531c.248-.46.849-.6,1.035-1.283,0,0,.009-.221.186-.212" transform="translate(26.646 19.943)" fill="#004f9a"></path><path id="Tracé_3698" data-name="Tracé 3698" d="M60.979,48.422c.01.107-.075.212-.182.127-.084-.052-.147-.18-.042-.254.107-.053.16.074.223.127" transform="translate(26.813 21.327)" fill="#004f9a"></path><path id="Tracé_3699" data-name="Tracé 3699" d="M62.527,49.017s-.12.332.464.252.763-1.068.962-1.381a1.935,1.935,0,0,1,.438-.483s-.358-.094-.763.35-.591,1.009-1.1,1.262" transform="translate(27.615 20.936)" fill="#004f9a"></path><path id="Tracé_3700" data-name="Tracé 3700" d="M33.821,62.823a.7.7,0,0,0-.5.985s1.032-.342.5-.985" transform="translate(14.69 27.75)" fill="#004f9a"></path><path id="Tracé_3701" data-name="Tracé 3701" d="M34.818,64.195a.449.449,0,0,0-.447-.226s-.359-.405-.13-.443a.6.6,0,0,0-.546.457.811.811,0,0,0,.244,1.3s.425-1.1.9-1.047c.05,0-.023-.046-.023-.046" transform="translate(14.777 28.06)" fill="#004f9a"></path><path id="Tracé_3702" data-name="Tracé 3702" d="M35.048,64.129c.5-.255.456-.545.7-.727,0,0-1.129.052-1.277.789,0,0,.084.195.581-.062" transform="translate(15.225 28.006)" fill="#004f9a"></path><path id="Tracé_3703" data-name="Tracé 3703" d="M38.8,64.367s-1.06.382-1.253.826a.447.447,0,0,0-.208-.185.72.72,0,0,1,.5-.538,1.426,1.426,0,0,0-1.582.369s-.309-.4-.069-.574a1.373,1.373,0,0,0-1.016.448s-.072-.522.319-.666a1.216,1.216,0,0,0-1.365,1.189.909.909,0,0,0,.774-.023s.431.147.483.4a.576.576,0,0,0,.261-.386c.023-.245.48-.074.48-.074a1.022,1.022,0,0,0,.33.441,1.761,1.761,0,0,1,.882-.118s.21.147.144.324a.6.6,0,0,0,.776-.05c.362-.345-.006-1.178.539-1.385" transform="translate(15.075 28.288)" fill="#004f9a"></path><path id="Tracé_3704" data-name="Tracé 3704" d="M36.632,65.9c.105-.075.271-.2.271-.2l-.177-.241c-.32-.074-.172-.281-.172-.281a1.323,1.323,0,0,0-1.037.4l.02.261a.908.908,0,0,1,.719.039.95.95,0,0,1-.268.235,1.716,1.716,0,0,0,.939.072,3.394,3.394,0,0,1,1.166.016c-.427-.445-1.462-.307-1.462-.307" transform="translate(15.689 28.791)" fill="#004f9a"></path><path id="Tracé_3705" data-name="Tracé 3705" d="M37.324,67.563s-.575.33-.437.7.6.268.6.268-.059-.31.169-.414-.333-.558-.333-.558" transform="translate(16.285 29.844)" fill="#004f9a"></path><path id="Tracé_3706" data-name="Tracé 3706" d="M38.116,67.406a.609.609,0,0,0-.265.786.3.3,0,0,0,.433.144s0-.229.127-.27c0,0,.1-.532-.294-.66" transform="translate(16.691 29.774)" fill="#004f9a"></path><path id="Tracé_3707" data-name="Tracé 3707" d="M43.906,69.5c.2-.164.186-.894.082-1.22a2.225,2.225,0,0,0-.874.454s-.12-.557.992-1.1a1.694,1.694,0,0,0-.992.061.351.351,0,0,1,.229-.369,1.521,1.521,0,0,0-.966.519s-.234-.252-.063-.4c0,0-.516.226-.584.477,0,0-.058-.457.128-.6a1.52,1.52,0,0,0-.993,1.07s-.29-.352.187-.8c.372-.35.226-.62.226-.62a4.637,4.637,0,0,1-.495.288c-.186.084-.392.105-.477.352,0,0-.1-.7.268-.888,0,0-.7-.081-1.071.848a.49.49,0,0,0-.518.149s-.226-.026-.248-.355a.726.726,0,0,0-.039,1.178s.185.1.245-.392l.148.1s.1-.33.244-.353a.754.754,0,0,0,.1.764s.274-.12.394.231c0,0,.125-.231.291-.231,0,0,.081.209.389-.019,0,0-.062.249.334.249,0,0-.108.062-.082.389,0,0,.2-.2.369-.144a.288.288,0,0,0-.062.192.615.615,0,0,1,.619.014s-.182.15-.163.314c0,0,.375-.187.578-.022a1.157,1.157,0,0,0,1.074.515l-.019.208a6.431,6.431,0,0,1,.744-.865" transform="translate(16.961 29.477)" fill="#004f9a"></path><path id="Tracé_3708" data-name="Tracé 3708" d="M39.308,67.011c.352-.206-.118-.535-.118-.535s-.915.516-.254,1.073l.17-.061s-.144-.27.2-.477" transform="translate(17.093 29.364)" fill="#004f9a"></path><path id="Tracé_3709" data-name="Tracé 3709" d="M42.063,69.874s1.029-.343.5-.989a.7.7,0,0,0-.5.989" transform="translate(18.551 30.428)" fill="#004f9a"></path><path id="Tracé_3710" data-name="Tracé 3710" d="M40.865,63.907a.787.787,0,0,0-.591.375s-.489.693.1,1.061c0,0,.535-.975.845-.921.03.01-.01-.026-.01-.026a.3.3,0,0,0-.284-.18s-.213-.3-.062-.309" transform="translate(17.706 28.229)" fill="#004f9a"></path><path id="Tracé_3711" data-name="Tracé 3711" d="M42.769,65.415s-.053-.114-.13-.137A.505.505,0,0,1,43,64.923a.924.924,0,0,0-1.065.183s.013-.522.182-.637a2.59,2.59,0,0,0-.891.5s.173-.591.441-.675a1.3,1.3,0,0,0-1.169,1,.615.615,0,0,0,.518.02s.277.114.3.294a.4.4,0,0,0,.192-.251c.033-.167.32-.029.32-.029a.729.729,0,0,0,.2.32,1.115,1.115,0,0,1,.593-.04s.131.105.076.221a.387.387,0,0,0,.519,0c.254-.225.058-.816.43-.933,0,0-.724.21-.875.519" transform="translate(17.89 28.399)" fill="#004f9a"></path><path id="Tracé_3712" data-name="Tracé 3712" d="M42.111,65.324a.875.875,0,0,0-.709.232v.187a.569.569,0,0,1,.476.055.685.685,0,0,1-.193.151.572.572,0,0,0,.435-.123c.078-.052.192-.118.192-.118l-.1-.187c-.2-.056-.1-.2-.1-.2" transform="translate(18.288 28.85)" fill="#004f9a"></path><path id="Tracé_3713" data-name="Tracé 3713" d="M40.146,64.065s1.1-.363.535-1.052a.754.754,0,0,0-.535,1.052" transform="translate(17.703 27.834)" fill="#004f9a"></path><path id="Tracé_3714" data-name="Tracé 3714" d="M41.832,64.253c.532-.274.486-.587.74-.777,0,0-1.2.056-1.358.843,0,0,.084.2.618-.066" transform="translate(18.205 28.038)" fill="#004f9a"></path><path id="Tracé_3715" data-name="Tracé 3715" d="M45.957,66.681s-.9.461-.255,1.142l.163-.045a.385.385,0,0,1,.209-.5c.346-.183-.117-.6-.117-.6" transform="translate(20.085 29.454)" fill="#004f9a"></path><path id="Tracé_3716" data-name="Tracé 3716" d="M50.452,70.97s1.051.75,1.352-.27a.874.874,0,0,0-1.352.27" transform="translate(22.286 31.135)" fill="#004f9a"></path><path id="Tracé_3717" data-name="Tracé 3717" d="M46.666,68.1c.507-.385.428-.8.668-1.061,0,0-1.181.1-1.273,1.171,0,0,.1.272.606-.11" transform="translate(20.346 29.611)" fill="#004f9a"></path><path id="Tracé_3718" data-name="Tracé 3718" d="M50.587,68.391s-1.068.585-1.233,1.234c0,0-.1-.218-.228-.264a1,1,0,0,1,.476-.79,1.163,1.163,0,0,0-1.61.575s-.359-.567-.121-.835a1.2,1.2,0,0,0-1.015.669s-.121-.744.268-.959c0,0-1.237-.231-1.309,1.747a.707.707,0,0,0,.8-.055s.463.2.539.559a.793.793,0,0,0,.238-.558c0-.347.493-.118.493-.118a1.7,1.7,0,0,0,.382.633,1.386,1.386,0,0,1,.907-.19.551.551,0,0,1,.173.463.506.506,0,0,0,.8-.081c.342-.52-.112-1.714.437-2.031" transform="translate(20.238 30.043)" fill="#004f9a"></path><path id="Tracé_3719" data-name="Tracé 3719" d="M51.761,70.774c-.489-.64-1.573-.415-1.573-.415.105-.1.265-.29.265-.29l-.21-.346a.282.282,0,0,1-.2-.4,1.227,1.227,0,0,0-1.06.606l.05.386c.293-.26.764.026.764.026a1.131,1.131,0,0,1-.271.353,1.4,1.4,0,0,0,1,.084,2.756,2.756,0,0,1,1.24,0" transform="translate(21.636 30.619)" fill="#004f9a"></path><path id="Tracé_3720" data-name="Tracé 3720" d="M46.908,67.856s.871.767,1.179-.071a.754.754,0,0,0-1.179.071" transform="translate(20.72 29.827)" fill="#004f9a"></path><path id="Tracé_3721" data-name="Tracé 3721" d="M49.653,67.225s-.049-.1-.118-.124a.465.465,0,0,1,.333-.326.846.846,0,0,0-.973.167s.012-.476.166-.581a2.364,2.364,0,0,0-.815.454s.159-.541.4-.617a1.187,1.187,0,0,0-1.068.913.568.568,0,0,0,.474.019s.252.1.274.268a.362.362,0,0,0,.174-.231c.032-.151.294-.026.294-.026a.667.667,0,0,0,.179.293,1.017,1.017,0,0,1,.541-.036s.12.1.069.2a.354.354,0,0,0,.474,0c.232-.206.053-.747.394-.853,0,0-.662.192-.8.474" transform="translate(21.017 29.241)" fill="#004f9a"></path><path id="Tracé_3722" data-name="Tracé 3722" d="M49.051,67.141a.8.8,0,0,0-.647.212v.172a.517.517,0,0,1,.434.05.636.636,0,0,1-.176.138.512.512,0,0,0,.4-.112c.072-.048.176-.108.176-.108l-.094-.17c-.187-.053-.089-.182-.089-.182" transform="translate(21.381 29.653)" fill="#004f9a"></path><path id="Tracé_3723" data-name="Tracé 3723" d="M45.47,61.895s-.336,1.168-.513,1.788-.407,1.876.744,2.282a.8.8,0,0,0-.231.584c-.036.443.017.742-.017.956,0,0,.107.558,1.38.973a4.276,4.276,0,0,0,2.3-.248c.247-.089.176-.248.105-.5a18.177,18.177,0,0,0-1.008-2.548s-.319-.159-1.311.3-.9.584-.9.584-.5-.584,1.874-1.256c0,0,.284-.389-.317-1.008s-1.168-.479-2.106-1.912" transform="translate(19.794 27.34)" fill="#004f9a"></path><path id="Tracé_3724" data-name="Tracé 3724" d="M43.135,40.954V40.92a1.843,1.843,0,0,0-.493-.552l0,0A6.7,6.7,0,0,0,40.1,39.2c-.107-.029-.219-.056-.33-.084-.094-.023-.183-.048-.281-.066l-.023-.007c-.164-.036-.317-.068-.467-.1-.323-.062-.61-.107-.872-.137l-.026,0c-.156-.017-.3-.035-.438-.043-.074-.006-.143-.007-.21-.012a4.348,4.348,0,0,0-1.214.075.457.457,0,0,0-.069.019s-.267.278.281.306h.019c.123.006.316.022.556.045.115.012.242.023.378.04.2.023.43.052.659.082l.392.053c.033,0,.065.01.1.013l.291.045.313.052.389.072c.264.05.5.105.685.157a11.4,11.4,0,0,1,2.7,1.224c.179.167.206.069.209.019" transform="translate(15.948 17.113)" fill="#004f9a"></path><path id="Tracé_3725" data-name="Tracé 3725" d="M32.445,40.213l-.254.032-.9.11s-.18-.065-.311.334l-.512,1.476a.148.148,0,0,0,.148.12c.124-.006.342-.82.409-.97l.138-.025-.73,2.331a.44.44,0,0,0-.457.2l1.155.108.434.039s.11.141.26-.495l.959-3s.169-.278-.337-.261m-.969,3.473-.271-.022-.176-.017.219-.7a.8.8,0,0,1,.163.009,1.049,1.049,0,0,1,.271.087Z" transform="translate(13.241 17.762)" fill="#004f9a"></path><path id="Tracé_3726" data-name="Tracé 3726" d="M34.4,39.923a.168.168,0,0,0-.026.035l-.082.216-1.2.088h-.058a1.011,1.011,0,0,0-.288.049c-.151.059-.167.147-.167.147l-.433,1.257c-.112.254-.05.554.05.417l0,0c.115-.166.192-.172.192-.172l-.408,1.318-.062.195-.019.059-.061.2-.133.434.174.014c.157.013.409.036.761.072a1.516,1.516,0,0,0,.476-.01c.185-.043.221-.125.221-.125l.05-.148.059-.19.025-.076.061-.19,1.11-3.486c-.13-.156-.208-.128-.245-.1m-1.215,3.718-.02.075-.019.063a.406.406,0,0,1-.081.121.334.334,0,0,1-.231.1l-.489-.03.053-.185.058-.193.016-.063.027-.091a1.014,1.014,0,0,1,.721.081Z" transform="translate(14.008 17.623)" fill="#004f9a"></path><path id="Tracé_3727" data-name="Tracé 3727" d="M37.007,49.96a32.313,32.313,0,0,0,.793,3.711,5.179,5.179,0,0,1-.078,4.146,2.711,2.711,0,0,0-.265,1.981,2.907,2.907,0,0,1-.21.95s-.293-.014-.571-1a10.614,10.614,0,0,1-.226-4.511,21.46,21.46,0,0,0,.323-4.622s-.039-.6.235-.659" transform="translate(16.044 22.068)" fill="#004f9a"></path><path id="Tracé_3728" data-name="Tracé 3728" d="M41.967,54.114a18.116,18.116,0,0,1,.16,3.946c-.177,1.876-.486,1.468.389,2.584a3.926,3.926,0,0,1,.405.591v-.007a9.4,9.4,0,0,1,.212-1.15,6.851,6.851,0,0,0,.177-2.264c-.071-.992-.141-2.248-.213-2.654s-.477-.761-1.132-1.045" transform="translate(18.52 23.903)" fill="#004f9a"></path><path id="Tracé_3729" data-name="Tracé 3729" d="M42.191,46.391a.131.131,0,0,0-.032-.009.161.161,0,0,0-.2.094l-.01.032c-.169.28-.3.195-.3.195l-.35-.091-.062-.017-3.767-.973v.006l-.963-.249-.3-.079-.258-.066-.4-.1-.193-.05c-.133-.026-.137-.2-.148-.336-.007-.085-.019-.157-.068-.176-.079-.027-.107.007-.148.049a.262.262,0,0,1-.115.074.331.331,0,0,0-.17.141.679.679,0,0,0-.055.1l0,.016L34.62,45l-.045.16a.464.464,0,0,0-.01.143.326.326,0,0,0,.042.12.428.428,0,0,0,.241.161s.216.058.574.147c1.484.389,5.382,1.407,5.706,1.5a2.579,2.579,0,0,0,.7.1s.392-.11.458-.29a1.16,1.16,0,0,0,.052-.218c.035-.2,0-.372-.151-.434" transform="translate(15.268 19.682)" fill="#004f9a"></path><path id="Tracé_3730" data-name="Tracé 3730" d="M31.312,32.677a2.107,2.107,0,0,1-2.294,1.844,2.108,2.108,0,0,1-2.3-1.844,2.108,2.108,0,0,1,2.3-1.844,2.107,2.107,0,0,1,2.294,1.844" transform="translate(11.804 13.619)" fill="#fff"></path><path id="Tracé_3731" data-name="Tracé 3731" d="M34.919,28.921a2.108,2.108,0,0,1-2.3,1.844,2.106,2.106,0,0,1-2.294-1.844,2.105,2.105,0,0,1,2.294-1.844,2.107,2.107,0,0,1,2.3,1.844" transform="translate(13.397 11.96)" fill="#fff"></path><path id="Tracé_3732" data-name="Tracé 3732" d="M36.929,31.92a2.108,2.108,0,0,1-2.3,1.844A2.107,2.107,0,0,1,32.34,31.92a2.107,2.107,0,0,1,2.294-1.844,2.108,2.108,0,0,1,2.3,1.844" transform="translate(14.285 13.285)" fill="#fff"></path><path id="Tracé_3733" data-name="Tracé 3733" d="M30.34,51.259a.344.344,0,0,0-.247-.128.718.718,0,0,0,.285-.27.315.315,0,0,1,.163.212,2.689,2.689,0,0,0-.2.186" transform="translate(13.293 22.466)" fill="#8c6f35"></path><path id="Tracé_3734" data-name="Tracé 3734" d="M43.221,22.543s-.019-.944,1.426-1.262a.513.513,0,0,1-.092.482,1.753,1.753,0,0,1,1.034-.32s.183.052.127.316a1.055,1.055,0,0,1,.705-.352s0,.538-.291.725c0,0,.722-.358,1.06.055a1.43,1.43,0,0,1,.78.127.482.482,0,0,1-.3.544.707.707,0,0,1,.5.484.987.987,0,0,1-.913.761,1.214,1.214,0,0,1,.5.708,1.036,1.036,0,0,1-.631.261s.389.15.445.332c0,0-.112.712-1.191.75a2.25,2.25,0,0,1,.167,1.322s-.3.147-.425.019a2.014,2.014,0,0,1,.385,1.3s.026.153-.461.075c0,0,.036,1.394-.952,1.618,0,0-.037.193-.2.172,0,0-.186-.519-.58-.539,0,0,.186.223.022.409a.218.218,0,0,1-.223-.186.562.562,0,0,0,.032.691,1.246,1.246,0,0,1,.1,1.217.371.371,0,0,1-.392-.127s0,.274-.356.31a.683.683,0,0,1,.356.448.82.82,0,0,1-.5.349.34.34,0,0,1-.187.371s.215-.01.492.333c0,0-.105.474-1.011.761,0,0,0,.434-.285.549a1.288,1.288,0,0,1,.307,1.081,1.492,1.492,0,0,1-.6-.01,1.6,1.6,0,0,1,.01,1.076.5.5,0,0,1-.6.235s.149.712-.1.908a.66.66,0,0,1-.606-.251s-.209.588-.706.421a.921.921,0,0,1-.646.45s-.372-.3-.186-.646c0,0-.7.287-.744.822a1.9,1.9,0,0,1-.327,1.12s-.458-.218-.458-.574c0,0-.009,1.129-.779,1.037a.659.659,0,0,1,0-.637s-.921-.721-1.606-.412c0,0-.31.249-.358,1.156s-.5,3.55-.44,4.517c0,0-1.556,3.842-2.428,6.793,0,0-.36-4.823-.32-5.467.058-1.058-.548-1.132-.548-1.132a.632.632,0,0,1-.251.326s-.51-.138-.518-.456c0,0-.076.456-.239.536a.843.843,0,0,1-.719-.167,1.507,1.507,0,0,1-.506.977s-.314-.294-.209-.572c0,0-.138.15-.587.053a.559.559,0,0,0-.673.322.633.633,0,0,1-.366.434s-.574-.8-.314-1.342-.238-.6-.4-.965a.7.7,0,0,1-.623-.15s-.151-.369.309-.623a1.117,1.117,0,0,1-.618-.382.891.891,0,0,1,.608-.554s-.068-.11.065-.248c0,0-.593.053-.761-.2s-.551.133-.551.133a.616.616,0,0,1-.187-.783.484.484,0,0,0-.546.036c-.293.216-.322.43-.606.493,0,0-.287-.3-.084-.539,0,0-.375.533-.83.394a1.971,1.971,0,0,1,.048-1.335.987.987,0,0,1-.173-1.133.961.961,0,0,1-.509-1.024,1.741,1.741,0,0,1,.985-1.07,2.929,2.929,0,0,1,1.664-2.731s-.285-1.135.652-1.414a.856.856,0,0,1,.572-.882,1.456,1.456,0,0,0,.768-1.031,1.979,1.979,0,0,1,1.081.133.725.725,0,0,0,.3-.6,1.493,1.493,0,0,1,.751-.381.533.533,0,0,0,.5-.36.521.521,0,0,1,.133.646s.711.036.715-.975.218-1.557.9-1.7c0,0,.148.17.1.744a1.413,1.413,0,0,1,1.093-.871.949.949,0,0,1,.232.61,3.064,3.064,0,0,0,1.332-1.739.763.763,0,0,1,.65-.35s.208-1.4,1.325-1.55a1.222,1.222,0,0,1,.265-.577.786.786,0,0,1,.342.662.49.49,0,0,1,.448-.166.427.427,0,0,1,.007.47,1.171,1.171,0,0,1,.493-.257c.244-.04,0-.709-.5-.777,0,0,.293-.639,1.3-.324a.885.885,0,0,1-.082-1.112s.489-.013.637.359a.662.662,0,0,1,.695-.425,1.1,1.1,0,0,1,.069.918,1.6,1.6,0,0,0,.544-.476.853.853,0,0,1,.311-.339s.114.166.637.025.7-.657,1.279-.545a1.336,1.336,0,0,1,.724-.688.585.585,0,0,1,.3.355m-9.6,19.078a.642.642,0,0,0-.767.1c-.458.342-.492.686-.793.686a8.814,8.814,0,0,1,.558,1.161c.179.5.389.437.58.29a1.825,1.825,0,0,0,.372-1.221,5.013,5.013,0,0,1,.05-1.012m-9.237.963a.592.592,0,0,0-.392.261c-.037-.1-.2-.1-.2-.1-.476.154-.368.745-.368.745a.9.9,0,0,0,.392-.066.485.485,0,0,0,.107.458c.127,0,.81-.1.755-.656a4.692,4.692,0,0,0-.079-.5c-.1-.195-.219-.143-.219-.143m-2.119-2.571s-.509-.35-.691.4c-.121.484.221.541-.042.89a.612.612,0,0,0,.693-.535c.056-.324-.081-.6.039-.751m.235-3.645a.67.67,0,0,0,.182,1.006s.392-.7-.182-1.006m2.238-2.716s-1.027.026-.941.874c.039.4.185.507.185.507a.643.643,0,0,0,.483-.587,1.969,1.969,0,0,1,.274-.794m1.4-1.861s-.392-.284-.706.706c0,0,.931-.037.706-.706m3.5-2a1.471,1.471,0,0,0,.238-1.334s-.079-.066-.355.17c0,0-.392-.291-.877.2s-.434.79-.434.79.082.238.631.371a1.4,1.4,0,0,0,.742.523.774.774,0,0,0,.053-.721m2.428-3.1a.81.81,0,0,0-.89.569c-.271.7.257.8.257.8s.717-.734.633-1.368m1.052.952a1.655,1.655,0,0,0,.781-1.119,1.131,1.131,0,0,0-1.179.655.327.327,0,0,0-.4-.148c-.458.634.42,1.583.42,1.583a1.011,1.011,0,0,1,.381-.97m1.926-2.8s-.673.036-.858.536a.968.968,0,0,0,.127.894,2.218,2.218,0,0,0,.731-1.43m5.859-2.336c-.965-.422-1.1.435-1.1.435.581.409,1.1-.435,1.1-.435m.265.177a.542.542,0,0,0-.414.411s.523-.022.414-.411M42.76,21.9a.469.469,0,0,0-.482.107c.063-.16-.137-.4-.137-.4A.722.722,0,0,0,41.8,22.7a1.613,1.613,0,0,0,.963-.8M44.984,31a.477.477,0,0,0-.643-.035c.247.9.954.695.954.695a1.057,1.057,0,0,0,.089-1.045.471.471,0,0,0-.4.385M43.4,34.6a.781.781,0,0,1-.581.363s0,.347-.076.412a.461.461,0,0,1,.376.383s.5-.052.5-.512A.867.867,0,0,0,43.4,34.6m-.939,2.449a1.539,1.539,0,0,1-.781.941s-.1.258.574.084c0,0,.069.089.32.1,0,0,.482-.738-.112-1.125m-6.021,3.342a.472.472,0,0,0-.755.241s.577.536.755-.241M36.167,32.9a1.634,1.634,0,0,0,1.406-.409c.533-.519.939-1.554.313-2.054a1.172,1.172,0,0,0-1.3-.1c-.235.026-.492-.235-1-.12-.451.1-.962.66-.606,1.635A1.471,1.471,0,0,0,36.167,32.9M32.9,36.883c.192-1.014-.4-1.427-.865-1.4-.515.02-.722.336-.963.36a1.263,1.263,0,0,0-1.259.433c-.541.633.027,1.514.643,1.876A1.7,1.7,0,0,0,32.9,36.883m7.94-.215c.627-.865.291-1.566-.123-1.8-.467-.251-.787-.065-1-.164s-.549-.582-1.3-.262-.652,1.443-.275,2.118a1.664,1.664,0,0,0,1.25.809,1.479,1.479,0,0,0,1.455-.7" transform="translate(9.513 9.4)" fill="#8c6f35"></path><path id="Tracé_3735" data-name="Tracé 3735" d="M28.661,31.511c-.316.283-.443.153-.443.153a4.094,4.094,0,0,1,.443-.153m-.042,1.877a1.2,1.2,0,0,1-1.1-.673s-.231-.349.053-.495c0,0,.249-.115.611.518a.683.683,0,0,0,1.042.17s.1.424-.606.48m1.028-.577c-.244.193-.26-.453.055-.588,0,0,.19.4-.055.588" transform="translate(12.116 13.919)" fill="#8c6f35"></path><path id="Tracé_3736" data-name="Tracé 3736" d="M31.443,29.308c-.271-.127-.153-.575-.153-.575.329.058.424.7.153.575m1.192-1.514s-.1.16-.454-.039a4.161,4.161,0,0,1,.454.039m-.1,1.831c-.686.117-.656-.326-.656-.326a.7.7,0,0,0,.977-.441c.247-.722.509-.669.509-.669.3.076.131.477.131.477-.2.477-.448.868-.962.959" transform="translate(13.81 12.26)" fill="#8c6f35"></path><path id="Tracé_3737" data-name="Tracé 3737" d="M33.784,32.53a1.317,1.317,0,0,1-.647-1.185s-.046-.437.26-.418c0,0,.267.022.3.784a.722.722,0,0,0,.823.7s-.105.427-.732.117m.424-1.779a2.858,2.858,0,0,1,.447.084c-.4.1-.447-.084-.447-.084m.722,1.782c-.3.052-.029-.546.307-.5,0,0-.012.457-.307.5" transform="translate(14.636 13.583)" fill="#8c6f35"></path><path id="Tracé_3738" data-name="Tracé 3738" d="M27.762,45.187s.836-.412.89.151a1.427,1.427,0,0,1-.108.81,13.323,13.323,0,0,1,.012,3.268,1.087,1.087,0,0,1,.085.228s-.166-.075-.267.15-.249.219-.249.219.2-3.084-.131-3.642c0,0,.236-.742.052-.892a.384.384,0,0,0-.294-.094c-.154.036.012-.2.012-.2" transform="translate(12.229 19.895)" fill="#8c6f35"></path><path id="Tracé_3739" data-name="Tracé 3739" d="M32.3,50.14a1,1,0,0,0-.089.822s.518-.365.571-.689a.342.342,0,0,0-.482-.133" transform="translate(14.206 22.122)" fill="#8c6f35"></path><path id="Tracé_3740" data-name="Tracé 3740" d="M33.673,50.406a.283.283,0,0,0-.47.094s.314.236.47-.094" transform="translate(14.667 22.224)" fill="#8c6f35"></path><path id="Tracé_3741" data-name="Tracé 3741" d="M31.953,53.587s-.15-.131-.293.072a.149.149,0,0,0,.154.075.17.17,0,0,0,.138-.147" transform="translate(13.985 23.652)" fill="#8c6f35"></path><path id="Tracé_3742" data-name="Tracé 3742" d="M32.4,53.735a.186.186,0,0,0-.226-.1c-.164.035-.21.118-.21.218a.212.212,0,0,0,.18.066c.105-.012.257-.189.257-.189" transform="translate(14.119 23.69)" fill="#8c6f35"></path><path id="Tracé_3743" data-name="Tracé 3743" d="M32.9,53.606a.18.18,0,0,0-.216-.1c-.172.036-.209.125-.218.229a.231.231,0,0,0,.187.061c.1-.019.247-.189.247-.189" transform="translate(14.342 23.632)" fill="#8c6f35"></path><path id="Tracé_3744" data-name="Tracé 3744" d="M31.522,53.72a1.456,1.456,0,0,0-.448.882.431.431,0,0,0,.283.033s.075-.278.231-.258a.149.149,0,0,1-.042.086c-.039.05-.078.3.215.309A.388.388,0,0,0,32,54.695a.312.312,0,0,1,.045-.343c.144-.18.3-.4.221-.525a.3.3,0,0,0-.316.086.136.136,0,0,1-.136.04c-.146-.04.022-.154.022-.154a.09.09,0,0,0-.081-.1c-.087-.009-.1.055-.231.016" transform="translate(13.726 23.722)" fill="#8c6f35"></path><path id="Tracé_3745" data-name="Tracé 3745" d="M32.252,54.105s-.03-.111-.118-.12-.193.065-.231.231c-.035.125-.1.107-.1.107a.21.21,0,0,0,0,.236,1.289,1.289,0,0,0,.265-.063c.081-.035.195.026.176.092a.3.3,0,0,0,.195-.01s.061.127.3-.019c0,0-.033,0-.04-.1a.213.213,0,0,0-.058-.15s-.082.033-.163-.079-.148-.144-.229-.124" transform="translate(14.034 23.845)" fill="#8c6f35"></path><path id="Tracé_3746" data-name="Tracé 3746" d="M31.713,46.989a.468.468,0,0,0-.28.656s.223.112.28-.656" transform="translate(13.866 20.756)" fill="#8c6f35"></path><path id="Tracé_3747" data-name="Tracé 3747" d="M31.317,47.567a.633.633,0,0,1,0,.6.4.4,0,0,0,.076.47,1.016,1.016,0,0,0,.652-.223.347.347,0,0,0,.448.105c.317-.105.745-.611,1.133-.482a.375.375,0,0,0,.453.173A1.529,1.529,0,0,1,35.173,48a.529.529,0,0,0-.578-.355c-.424.071-.446.235-.874-.017,0,0-.13.186-.3.108s-.317-.353-.561-.26-.349.223-.65.19a2.926,2.926,0,0,0-.9-.1" transform="translate(13.811 20.962)" fill="#8c6f35"></path><path id="Tracé_3748" data-name="Tracé 3748" d="M32.494,49.862a.43.43,0,0,1,.208-.578.4.4,0,0,0,.059.245.285.285,0,0,1,0,.355.287.287,0,0,0-.267-.022" transform="translate(14.335 21.769)" fill="#8c6f35"></path><path id="Tracé_3749" data-name="Tracé 3749" d="M33.42,49.284a.492.492,0,0,0-.208.506.867.867,0,0,0,.536.035c.193-.084.117-.238-.033-.3s-.319-.092-.3-.245" transform="translate(14.663 21.769)" fill="#8c6f35"></path><path id="Tracé_3750" data-name="Tracé 3750" d="M28.892,48.123s-.019.212-.336.3-.2.258-.125.4c0,0,.257-.261.368-.081,0,0,.278-.221.3-.389a.984.984,0,0,0-.208-.225" transform="translate(12.521 21.257)" fill="#8c6f35"></path><path id="Tracé_3751" data-name="Tracé 3751" d="M34.636,47.476a.76.76,0,0,0,.262.337.775.775,0,0,1-.319-.092.4.4,0,0,1,.056-.245" transform="translate(15.274 20.971)" fill="#8c6f35"></path><path id="Tracé_3752" data-name="Tracé 3752" d="M27.05,48.94a2.5,2.5,0,0,0-.766,1.707s.017.262.262.228.484-.316.63-.17a.362.362,0,0,1,.114.317.289.289,0,0,0,.32.074c.186-.074.366-.264.555,0a.806.806,0,0,0,.484.02.345.345,0,0,1,.206-.334.386.386,0,0,0,.242-.3.534.534,0,0,1-.284-.022,1.2,1.2,0,0,0,.244-.333,2.891,2.891,0,0,1-1.262.3,2.407,2.407,0,0,1,.422-.281c.209-.1.074-.251.074-.251a3.552,3.552,0,0,1-.944.293.655.655,0,0,0,.163-.371c.019-.226-.125-.244-.125-.244s-.019.088-.3.147a.757.757,0,0,1-.037-.779" transform="translate(11.61 21.618)" fill="#8c6f35"></path><path id="Tracé_3753" data-name="Tracé 3753" d="M28,45.545a.553.553,0,0,1,.012.283,1.675,1.675,0,0,1-1.3-.133s-.009-.15.079-.172.3-.13.3-.13a3.4,3.4,0,0,1,.905.151" transform="translate(11.802 20.051)" fill="#8c6f35"></path><path id="Tracé_3754" data-name="Tracé 3754" d="M27.246,46.525a1.181,1.181,0,0,0-.456.421,2.919,2.919,0,0,0,.915.04,1.2,1.2,0,0,1,.484-.147c.1.01.2-.435-.221-.435-.343,0-.127.235-.663.159Z" transform="translate(11.834 20.497)" fill="#8c6f35"></path><path id="Tracé_3755" data-name="Tracé 3755" d="M28.115,48.195A2.077,2.077,0,0,1,27,48.343a1.956,1.956,0,0,1,.841-.506c.438-.094.342.3.278.358" transform="translate(11.925 21.124)" fill="#8c6f35"></path><path id="Tracé_3756" data-name="Tracé 3756" d="M26.748,44.809s.219,5.208.019,6.553a.4.4,0,0,0-.108.519.429.429,0,0,1-.264.593.48.48,0,0,0-.1-.5c-.212-.258-.219-1.012-.037-1.112,0,0-.623-3.6-.322-4.311s-.013-.843-.013-.843l-.025-.424a.217.217,0,0,0-.219-.245c-.251-.012-.327-.169-.311-.309s.045-.473.415-.323a1.48,1.48,0,0,0,.624.111s.313.157.337.287" transform="translate(11.206 19.6)" fill="#8c6f35"></path><path id="Tracé_3757" data-name="Tracé 3757" d="M25.8,45.076s.1.5.421.637a.3.3,0,0,1-.036.144s-.049.025-.19-.022-.062.245-.01.356.026.373-.1.435a.713.713,0,0,0,.043.236.2.2,0,0,1-.082.262,3.492,3.492,0,0,1-.125-.781,1.069,1.069,0,0,0-.1-.487,3.739,3.739,0,0,1-1.586-.394s0-.192.372-.039a.554.554,0,0,1,.48-.088c.264.088.734.21.819-.209Z" transform="translate(10.617 19.911)" fill="#8c6f35"></path><path id="Tracé_3758" data-name="Tracé 3758" d="M24.308,47.171a1.36,1.36,0,0,0,.725.045,1.448,1.448,0,0,1,.779,0,.506.506,0,0,1,.251-.159c.123-.01.076-.484-.5-.334a1.686,1.686,0,0,1-.666.082s-.052.114-.349.176-.241.19-.241.19" transform="translate(10.735 20.625)" fill="#8c6f35"></path><path id="Tracé_3759" data-name="Tracé 3759" d="M25.82,47.565a1.821,1.821,0,0,0-.222.931,4.069,4.069,0,0,0-.969.324c-.345.2-.322.1-.322.1s-.121.271.159.236a2.026,2.026,0,0,1,1.23-.163,1.129,1.129,0,0,1,.063.447c-.035.147.092.248.137.323,0,0,.134,0,.147-.284s-.085-.611.164-.649a.179.179,0,0,0,.012-.235.455.455,0,0,1-.339-.451,1.713,1.713,0,0,0-.061-.578" transform="translate(10.726 21.01)" fill="#8c6f35"></path><path id="Tracé_3760" data-name="Tracé 3760" d="M25.639,49.262a.279.279,0,0,0-.213.3s-.063.074-.15-.185a.835.835,0,0,0-.025.484c.076.222-.209.346-.209.346a.4.4,0,0,0,.407-.244s.128.017.128.1a.752.752,0,0,0,.062-.8" transform="translate(11.062 21.76)" fill="#8c6f35"></path><path id="Tracé_3761" data-name="Tracé 3761" d="M24.22,54.244a1.157,1.157,0,0,0-.715.47s.056.176.343.075a.812.812,0,0,1,.731,0,.194.194,0,0,0-.049.189s.085.169.375.134.555-.193.655-.134a.454.454,0,0,0-.049.358.636.636,0,0,0,.581-.05c.285-.186.3.074.3.074s.319-.669.866-.544c0,0-.124.061-.163.36a.235.235,0,0,0,.311.1c.236-.078.3-.146.4-.134,0,0-.066.007-.053.146,0,0,.265-.232.435-.11,0,0-.1-.421.486-.516,0,0,0-.257-.187-.314a3.464,3.464,0,0,1-1.391-.2s-.061-.046.049-.182a.344.344,0,0,0,.045-.319,1.844,1.844,0,0,0-.492.342c-.195.212-.544.036-.544.036a.948.948,0,0,0,.274-.4.411.411,0,0,0-.32.05.608.608,0,0,1-.551-.032.276.276,0,0,1,.176-.314s-.264-.215-.768.2a.922.922,0,0,1,.01-.581s-.209.009-.245.287-.138.258-.138.258-.2-.68.012-.928a6.643,6.643,0,0,1-.026-1.752,8.291,8.291,0,0,0,.014-1.851s-.262-.071-.112-.99c.076-.46.016-.519.016-.519a2.5,2.5,0,0,1-.052-1.306,2.706,2.706,0,0,0-.186-1.808s.033.088-.21.049c-.138-.025-.076-.414-.923-.192-.515.143-.322.363-.322.363a1,1,0,0,1,.582.094c.174.154.26.036.2.963a1.127,1.127,0,0,0,.087.693,5.424,5.424,0,0,1-.03,1.215,4.589,4.589,0,0,0,.1,1.452c.115.584.03,2.158.1,2.748a3.044,3.044,0,0,0,.21,1.015,1.3,1.3,0,0,0-.01.482,3.247,3.247,0,0,1,.172,1.019" transform="translate(10.057 19.494)" fill="#8c6f35"></path><path id="Tracé_3762" data-name="Tracé 3762" d="M22.96,50.466s-.257.03-.218.526a.556.556,0,0,1-.1.314.581.581,0,0,0,.4-.046c.15-.1.091-.414-.012-.559s-.063-.235-.063-.235" transform="translate(10 22.292)" fill="#8c6f35"></path><path id="Tracé_3763" data-name="Tracé 3763" d="M20.737,51.689a.376.376,0,0,0-.3.272s-.193-.258-.748.267c0,0,.258-.078.355.061,0,0,.244-.186.421-.026a.263.263,0,0,0,.447-.146c.013-.2-.143-.212-.174-.428" transform="translate(8.697 22.832)" fill="#8c6f35"></path><path id="Tracé_3764" data-name="Tracé 3764" d="M20.35,52.721s.391-.608.695-.417.189.322.127.4-.309-.14-.414.009c0,0-.124-.153-.408.012" transform="translate(8.989 23.087)" fill="#8c6f35"></path><path id="Tracé_3765" data-name="Tracé 3765" d="M21.365,56.763s.512-.177,1.016.5a.293.293,0,0,0,.3-.148c.082-.18.176-.33.356-.33,0,0-.125.225.19.4s.407-.206.815-.206c0,0-.12.26.111.316s.445-.36.777-.249c0,0-.14.3-.056.448,0,0,.065-.082.2.014a1.993,1.993,0,0,1,.721-1.051s-.1-.147-.229-.079-.206.164-.326.1-.225-.245-.666.014a.268.268,0,0,1-.285.016.43.43,0,0,0,.117-.6.969.969,0,0,1-.787.458.578.578,0,0,0,.164-.392.5.5,0,0,1,.19-.385.548.548,0,0,0-.409.144,1.139,1.139,0,0,1-.381.241s-.076-.261,0-.371a.157.157,0,0,0-.2.075c-.084.133-.164.1-.164.1a.456.456,0,0,0-.069-.369.578.578,0,0,1-.04-.437s-.18-.007-.31.251c-.055.1-.1.033-.1.033s-.084-1.851-.125-2.832a26.766,26.766,0,0,1,.125-3.273,14.443,14.443,0,0,0-.029-2.9c-.065-.5.084-1.371,0-1.808s-.219-.529-.407-.447a2.3,2.3,0,0,0-1.2-.18.2.2,0,0,1-.053.18s.4.046.285.241c0,0,.545.275.3,1.262a8.412,8.412,0,0,1,.274,2.3c-.016,1.351-.148,4.354-.025,5.01a12.235,12.235,0,0,1,.146,2.759s.326.277.285.477-.146.136-.146.136.105.186-.14.339c-.311.189-.226.248-.226.248" transform="translate(9.106 19.351)" fill="#8c6f35"></path><path id="Tracé_3766" data-name="Tracé 3766" d="M23.144,47.751a4.094,4.094,0,0,0-.081,1.325.684.684,0,0,0-.2.014s.04.163-.3.163a1.389,1.389,0,0,0-.68.1s.074.151,0,.2a10.753,10.753,0,0,0,1.285.055,3.919,3.919,0,0,1,.055,1.047s.27-.063.283-.479-.029-.712.2-.853-.114-.4-.114-.4-.117-.16.01-.272c0,0-.177-.025-.163-.376a.5.5,0,0,0-.288-.523" transform="translate(9.663 21.092)" fill="#8c6f35"></path><path id="Tracé_3767" data-name="Tracé 3767" d="M23.466,47.125a.5.5,0,0,0-.013.284.692.692,0,0,0-.461-.039,1.115,1.115,0,0,1-.816-.1l-.229-.016s-.017-.133.294-.133a.424.424,0,0,0,.409-.2s.272.022.412.022a.451.451,0,0,1,.4.174" transform="translate(9.694 20.729)" fill="#8c6f35"></path><path id="Tracé_3768" data-name="Tracé 3768" d="M22.767,45.453a4.1,4.1,0,0,1-.163.747.42.42,0,0,0,.01.313s.2-.02.2.262c0,.267-.036.349-.023.457,0,0,.174.1.258-.026a3.576,3.576,0,0,0-.043-1.116c-.123-.394-.012-.613-.244-.637" transform="translate(9.973 20.077)" fill="#8c6f35"></path><path id="Tracé_3769" data-name="Tracé 3769" d="M21.991,45.164a.848.848,0,0,1,.724-.125,1.357,1.357,0,0,0,.79.138s.039.177-.208.218-.271.111-.271.111a1.151,1.151,0,0,1-.557-.218c-.249-.176-.381-.045-.381-.045Z" transform="translate(9.714 19.874)" fill="#8c6f35"></path><path id="Tracé_3770" data-name="Tracé 3770" d="M20.919,44.066s-.274.18-.251.764a.477.477,0,0,1-.121.4.819.819,0,0,1-.27.065c-.123,0-.385-.065-.532.016a.971.971,0,0,0,.46.2,1.389,1.389,0,0,1,.422.108,5.58,5.58,0,0,0,.1,2.327l.1-.056a7.311,7.311,0,0,0,.189-2.271.738.738,0,0,0,.26-.121.278.278,0,0,0-.068-.314s-.271.058-.241-.506-.04-.62-.04-.62" transform="translate(8.722 19.465)" fill="#8c6f35"></path><path id="Tracé_3771" data-name="Tracé 3771" d="M21.215,47.011a.67.67,0,0,0-.123.228,1.308,1.308,0,0,1-.424.056c-.267,0-.666-.056-.792.079,0,0-.347-.052-.347.124s.232.063.232.063a2.556,2.556,0,0,0,.649.081c.242-.009.75-.009.75-.009a3.388,3.388,0,0,1-.027,1.336c-.149.882-.179,1.179-.179,1.179a5.685,5.685,0,0,0-1.077.378.724.724,0,0,0-.61.249.658.658,0,0,1-.368.082s-.042.065-.229.105-.216.03-.216.167.489-.056.489-.056a13.025,13.025,0,0,0,2.041-.365,2.839,2.839,0,0,1,.19,1.188,6.88,6.88,0,0,0,.04,1.433h.112a4.112,4.112,0,0,0,.229-1.385c-.042-.643-.15-1.289-.15-1.289s.405-.248.381-.6a.9.9,0,0,1-.381-.039,13.426,13.426,0,0,0,.082-1.9,1.232,1.232,0,0,0-.1-.49.461.461,0,0,0,.359-.427s-.561.114-.533-.185" transform="translate(8.152 20.765)" fill="#8c6f35"></path><path id="Tracé_3772" data-name="Tracé 3772" d="M24.96,52.262a.944.944,0,0,0-.346.525c-.062.221-.36.1-.624.747,0,0,.4.069.4.355,0,0,.059.1.234-.007s.114-.606.34-.7a.329.329,0,0,1,.1.222.228.228,0,0,1,.284-.2c.277.048.277-.172.277-.172s-.11-.042-.235-.356-.411-.1-.411-.1a.557.557,0,0,0-.01-.313" transform="translate(10.597 23.085)" fill="#8c6f35"></path><path id="Tracé_3773" data-name="Tracé 3773" d="M25.607,52.644a1.315,1.315,0,0,0-.023.441.407.407,0,0,1-.324.1s-.232.147-.27.3a.681.681,0,0,0,.51-.231.16.16,0,0,1,.05.189s.519-.153.581-.422-.46-.228-.525-.385" transform="translate(11.039 23.254)" fill="#8c6f35"></path><path id="Tracé_3774" data-name="Tracé 3774" d="M26.027,43.236s.112.065.277-.063.427.025.5.173c0,0-.2.128.048.252.232.127.4.334.213.546a.326.326,0,0,0-.3-.136c-.161.026-.533.159-.607-.04s.04-.226.04-.226a.388.388,0,0,1-.176-.506" transform="translate(11.478 19.047)" fill="#8c6f35"></path><path id="Tracé_3775" data-name="Tracé 3775" d="M26.192,42.742a.637.637,0,0,0-.774-.068c-.451.265-.049.584.069.63s.323.137.27.251a1.217,1.217,0,0,0,.732-.287.157.157,0,0,1-.12-.082s.023-.192-.11-.215-.068-.229-.068-.229" transform="translate(11.135 18.805)" fill="#8c6f35"></path><path id="Tracé_3776" data-name="Tracé 3776" d="M24.826,43.444s.079.3.33.267c0,0-.091-.05-.02-.1,0,0,.272-.17.032-.307-.223-.123-.342.144-.342.144" transform="translate(10.966 19.112)" fill="#8c6f35"></path><path id="Tracé_3777" data-name="Tracé 3777" d="M25.181,43.718s.166.072.247-.03c.134-.143.365-.362.584-.352a.7.7,0,0,0-.3-.623,3.576,3.576,0,0,1-.394-.271s-.036-.271.124-.352c.329-.167-.072-.453-.072-.453s.166-.187-.088-.334-.272-.241-.156-.337c0,0,.18-.174-.369-.245,0,0-.167-.043.019-.1a.13.13,0,0,0-.111-.151c-.125-.036-.05-.016-.148-.144,0,0-.208.309,0,.342s-.012.063.033.3.2.193.2.193-.089.376.185.464a.186.186,0,0,1-.108.118c-.1.058-.157.123-.108.241s.1.21-.023.3-.166.326.164.447c0,0,.035.173-.1.221a.612.612,0,0,0,.539.34s-.242.221-.111.427" transform="translate(10.787 17.814)" fill="#8c6f35"></path><path id="Tracé_3778" data-name="Tracé 3778" d="M24.191,40.676a.256.256,0,0,1,.055.3c-.1.169-.3.362-.043.584a.347.347,0,0,0,.4-.34c.058-.405-.125-.606-.415-.546" transform="translate(10.635 17.963)" fill="#8c6f35"></path><path id="Tracé_3779" data-name="Tracé 3779" d="M24.391,41.421a.228.228,0,0,0-.382.1c-.1.215.306.381.306.381a.43.43,0,0,1-.264.1c-.128-.017-.572.063-.46.492,0,0,.193-.029.261.1a.4.4,0,0,1,.35-.2c.288-.017.5-.17.375-.371,0,0,.2-.167-.3-.425a.144.144,0,0,1,.111-.183" transform="translate(10.413 18.266)" fill="#8c6f35"></path><path id="Tracé_3780" data-name="Tracé 3780" d="M23.69,42.143a.68.68,0,0,0-.617-.32c-.219.014-.307.249-.47.249,0,0,0,.549.385.441s.526-.441.7-.371" transform="translate(9.984 18.473)" fill="#8c6f35"></path><path id="Tracé_3781" data-name="Tracé 3781" d="M23.06,42.468s-.48-.112-.48.223a.17.17,0,0,0,.193.193s-.006-.144.112-.164.174-.252.174-.252" transform="translate(9.974 18.75)" fill="#8c6f35"></path><path id="Tracé_3782" data-name="Tracé 3782" d="M24.256,42.627a.821.821,0,0,1,.408.673s.352.094.316.306a.171.171,0,0,1,.084.177s-.068.161-.528.107c0,0,.117-.229-.046-.262a1.1,1.1,0,0,0-.405.027s-.2-.332.02-.421a.26.26,0,0,0,.089-.44s-.055-.076.062-.167" transform="translate(10.601 18.829)" fill="#8c6f35"></path><path id="Tracé_3783" data-name="Tracé 3783" d="M23.184,42.858s.7-.371.67.467a.445.445,0,0,1,.187.7s-.055.026-.177-.086a.2.2,0,0,0-.187-.21c-.2-.01-.371.023-.359-.2,0,0,.336-.384.209-.495a.491.491,0,0,0-.309-.1s-.076-.079-.035-.079" transform="translate(10.235 18.895)" fill="#8c6f35"></path><path id="Tracé_3784" data-name="Tracé 3784" d="M23.955,43.5s.056.226-.065.288a.492.492,0,0,0,.317-.075s.019-.2-.252-.213" transform="translate(10.553 19.216)" fill="#8c6f35"></path><path id="Tracé_3785" data-name="Tracé 3785" d="M22.992,42.324a1.561,1.561,0,0,0-.539.208A.265.265,0,0,1,22,42.4s-.045.232-.4.247c0,0-.153.281.2.458a1.06,1.06,0,0,0,.437.056c.232-.025.313-.114.4-.114,0,0-.062-.285.115-.4a.636.636,0,0,0,.234-.323" transform="translate(9.529 18.695)" fill="#8c6f35"></path><path id="Tracé_3786" data-name="Tracé 3786" d="M22.519,42.88a.269.269,0,0,1-.232.212c-.193.02-.238.372.167.47,0,0-.125.078-.125.408a.357.357,0,0,1,.258.185c.072.164.272-.012.317-.112a2.673,2.673,0,0,0,.055-.515.8.8,0,0,0,.249-.166s-.153-.4-.447-.391-.242-.091-.242-.091" transform="translate(9.781 18.941)" fill="#8c6f35"></path><path id="Tracé_3787" data-name="Tracé 3787" d="M20.891,41.644s-.1.247.033.346c0,0,.36,0,.353.186s-.275.68.105.83c.144.056.254-.108.254-.108s-.052-.561.187-.673c0,0-.153-.163-.03-.288s-.036-.6-.474-.425-.428.133-.428.133" transform="translate(9.213 18.319)" fill="#8c6f35"></path><path id="Tracé_3788" data-name="Tracé 3788" d="M19.606,44.831a.173.173,0,0,0-.091.234s.176-.037.2.027c0,0,.088-.228-.107-.261" transform="translate(8.611 19.802)" fill="#8c6f35"></path><path id="Tracé_3789" data-name="Tracé 3789" d="M28.323,51.336s-.141-.13-.3.068a.167.167,0,0,0,.156.082.177.177,0,0,0,.14-.15" transform="translate(12.38 22.657)" fill="#8c6f35"></path><path id="Tracé_3790" data-name="Tracé 3790" d="M28.771,51.485a.187.187,0,0,0-.223-.1c-.167.039-.212.121-.218.223a.242.242,0,0,0,.185.061c.105-.019.257-.187.257-.187" transform="translate(12.514 22.697)" fill="#8c6f35"></path><path id="Tracé_3791" data-name="Tracé 3791" d="M27.891,51.461a1.526,1.526,0,0,0-.447.89.435.435,0,0,0,.278.033s.075-.278.236-.26a.174.174,0,0,1-.043.088c-.04.05-.082.3.21.307a.391.391,0,0,0,.239-.079.3.3,0,0,1,.045-.342c.148-.179.309-.394.223-.528a.312.312,0,0,0-.322.085.137.137,0,0,1-.136.049c-.14-.049.026-.161.026-.161a.085.085,0,0,0-.076-.088c-.089-.014-.107.049-.235.006" transform="translate(12.123 22.728)" fill="#8c6f35"></path><path id="Tracé_3792" data-name="Tracé 3792" d="M28.625,51.852s-.029-.11-.124-.118-.186.075-.229.232c-.033.12-.094.107-.094.107a.21.21,0,0,0,0,.235,1.578,1.578,0,0,0,.267-.059c.087-.039.19.023.18.092a.289.289,0,0,0,.192-.016s.063.133.3-.017c0,0-.032,0-.042-.11a.233.233,0,0,0-.055-.141s-.084.035-.17-.081-.143-.141-.222-.124" transform="translate(12.431 22.851)" fill="#8c6f35"></path><path id="Tracé_3793" data-name="Tracé 3793" d="M33.193,52s-.662.448-.63,1.011c0,0,.125.892-.1,1.086,0,0,.509-.193.631.157,0,0,.418-.884.036-1.21S33.193,52,33.193,52" transform="translate(14.342 22.97)" fill="#8c6f35"></path><path id="Tracé_3794" data-name="Tracé 3794" d="M35.123,52.774a4.641,4.641,0,0,0-1.6,1.595l-.087-.079a4.953,4.953,0,0,0,.087-1.254,6.887,6.887,0,0,1,.1-1.452s-.471-.088-.709,1.21L32.8,52.75a19.811,19.811,0,0,1-.546-3.513c0-1.293.081-2.349.081-2.349l-.1-.068s-.037-.21-.386-.061c-.4.169-1.4-.353-1.4-.353-.616-.26-.879-.346-.879-.346a14.01,14.01,0,0,1-.094,3.854c-.316,2.21-.409,1.844-.724,2.214a3.211,3.211,0,0,0-.448.65s.112.245.52.13c0,0,.022-.1.032-.195s-.025-.164.317-.271c.33-.124.7-1.067.7-1.067a.71.71,0,0,0,.718-.288l.112.144s-.758.526-.817.982a5.055,5.055,0,0,0,.8-.356s.063-.232.163-.232l.058.206a1.725,1.725,0,0,1-.368.431,1.293,1.293,0,0,0-.306.405.453.453,0,0,0-.17,0,1.248,1.248,0,0,0-.4.582.336.336,0,0,0,.434.036c.1-.078.128-.281.242-.451a1.111,1.111,0,0,0,.45-.4.431.431,0,0,1,.236-.164.693.693,0,0,1,.075.235,1.848,1.848,0,0,1-.311.28.671.671,0,0,0-.3.554.777.777,0,0,0,.161-.012.381.381,0,0,0,.107.244,1.269,1.269,0,0,0,.252-.068,1.516,1.516,0,0,0-.277.453.73.73,0,0,0,.714-.248s.208.036.161.323c0,0-.411.125-.262.469,0,0-.138.17-.545.084a.44.44,0,0,0-.522.584,1.213,1.213,0,0,0,.569-.12c.248-.1.309.061.309.061V55.2s.322.111.487-.1c0,0,.4.066.061.509-.251.323-.147.46-.147.46l.336.085s.17.251.356.2c0,0-.063.236-.159.27,0,0,.088.372.32.221s.51-.391.672-.254c0,0,.208.431,1.078-.013a2.025,2.025,0,0,0,.05-1.312c-.172-.936.908-2.5.908-2.5m-4.807-1.945a.849.849,0,0,1-.284.088.267.267,0,0,1,.156-.222c.317-.128.313-.209.313-.209a.332.332,0,0,1-.185.343m-.085-.764a.506.506,0,0,1-.164.052.154.154,0,0,1,.089-.13c.186-.075.183-.121.183-.121a.193.193,0,0,1-.108.2" transform="translate(12.5 20.345)" fill="#8c6f35"></path></g></g></svg> 